<?xml version='1.0' encoding='utf-8'?>
<svg xmlns="http://www.w3.org/2000/svg" width="896.0px" height="256px" viewBox="0 0 896.0 256">
        <style>
            @keyframes fade-in {
                0% {
                    opacity: 0%;
                }
                100% {
                    opacity: 100%;
                }
            }
            .fade-in {
                opacity: 0%;
                animation: fade-in 1.25s forwards ease-in-out;
            }

            @keyframes wave1 {
                0% {
                    transform: translateY(0%);
                }
                100% {
                    transform: translateY(-1.5%);
                }
            }
            .wave1 {
                animation: wave1 2s infinite ease-in-out;
                animation-direction: alternate;
            }

            @keyframes wave2 {
                0% {
                    transform: translateY(0%);
                }
                100% {
                    transform: translateY(-3%);
                }
            }
            .wave2 {
                animation: wave2 2s infinite ease-in-out;
                animation-direction: alternate;
            }
        </style>
        <defs>
            <linearGradient id="sky-gradient" gradientTransform="rotate(90)">
                <stop offset="0%" stop-color="#fdb367" />
                <stop offset="65.0%" stop-color="#ff6f5d" />
            </linearGradient>
            <linearGradient id="sun-gradient" gradientTransform="rotate(90)">
                <stop offset="40%" stop-color="#fffab3" />
                <stop offset="80%" stop-color="#ff6f5d" />
            </linearGradient>
            <linearGradient id="soft-ends">
                <stop offset="0%" stop-color="black" />
                <stop offset="20%" stop-color="white" />
                <stop offset="80%" stop-color="white" />
                <stop offset="100%" stop-color="black" />
            </linearGradient>
            
                <mask id="rm0">
                    <rect x="384.3036335143952px" y="165.4px" width="129.4310535889131px" height="2px" fill="url('#soft-ends')" />
                </mask>
            
                <mask id="rm1">
                    <rect x="381.2736553102054px" y="166.81px" width="133.45522897867482px" height="2px" fill="url('#soft-ends')" />
                </mask>
            
                <mask id="rm2">
                    <rect x="380.59999269263676px" y="168.32434px" width="137.2864421267639px" height="2px" fill="url('#soft-ends')" />
                </mask>
            
                <mask id="rm3">
                    <rect x="377.8464043340502px" y="169.95074116px" width="140.88114426228785px" height="2px" fill="url('#soft-ends')" />
                </mask>
            
                <mask id="rm4">
                    <rect x="377.61130902898884px" y="171.69749600584px" width="144.18672848206845px" height="2px" fill="url('#soft-ends')" />
                </mask>
            
                <mask id="rm5">
                    <rect x="376.15447280222304px" y="173.57351071027216px" width="147.1395684571437px" height="2px" fill="url('#soft-ends')" />
                </mask>
            
                <mask id="rm6">
                    <rect x="373.6094650265918px" y="175.58835050283233px" width="149.6624342281477px" height="2px" fill="url('#soft-ends')" />
                </mask>
            
                <mask id="rm7">
                    <rect x="369.9370367095791px" y="177.7522884400419px" width="151.66102252798828px" height="2px" fill="url('#soft-ends')" />
                </mask>
            
                <mask id="rm8">
                    <rect x="370.4475603572272px" y="180.07635778460502px" width="153.01918782291602px" height="2px" fill="url('#soft-ends')" />
                </mask>
            
            
                <mask id="rm9">
                    <rect x="371.33805460255235px" y="181.15px" width="153.43631515094654px" height="2.5px" fill="url('#soft-ends')" />
                </mask>
            
                <mask id="rm10">
                    <rect x="373.45728154579626px" y="183.775px" width="153.50794874857158px" height="2.5px" fill="url('#soft-ends')" />
                </mask>
            
                <mask id="rm11">
                    <rect x="369.7631297649658px" y="186.596875px" width="152.46312833883445px" height="2.5px" fill="url('#soft-ends')" />
                </mask>
            
                <mask id="rm12">
                    <rect x="374.2175401550247px" y="189.630390625px" width="150.01531091138665px" height="2.5px" fill="url('#soft-ends')" />
                </mask>
            
                <mask id="rm13">
                    <rect x="376.8030713946816px" y="192.89141992187498px" width="145.77433060016514px" height="2.5px" fill="url('#soft-ends')" />
                </mask>
            
                <mask id="rm14">
                    <rect x="376.28828193320464px" y="196.3970264160156px" width="139.1825639345338px" height="2.5px" fill="url('#soft-ends')" />
                </mask>
            
                <mask id="rm15">
                    <rect x="381.1363682100418px" y="200.16555339721677px" width="129.38405202082185px" height="2.5px" fill="url('#soft-ends')" />
                </mask>
            
                <mask id="rm16">
                    <rect x="389.0897729840736px" y="204.21671990200804px" width="114.90742785332756px" height="2.5px" fill="url('#soft-ends')" />
                </mask>
            
                <mask id="rm17">
                    <rect x="401.2120785083165px" y="208.57172389465862px" width="92.65120832128403px" height="2.5px" fill="url('#soft-ends')" />
                </mask>
            
                <mask id="rm18">
                    <rect x="421.5465127417282px" y="213.253353186758px" width="51.70437660519749px" height="2.5px" fill="url('#soft-ends')" />
                </mask>
            
        </defs>
        <g class="fade-in" style="animation-delay: 2.25s">
            <rect width="896.0px" height="256px" rx="15px" fill="url('#sky-gradient')" />
        </g>
        <g class="fade-in" style="animation-delay: 2.75s">
            <circle cx="50%" cy="50%" r="64.0px" fill="url('#sun-gradient')" />
    <rect width="896.0px" height="53.75999999999999px" y="166.4px" fill="#d8b8b5" />
                <rect x="384.3036335143952px" y="165.4px" width="129.4310535889131px" height="2px" rx="1.0px" ry="1.0px" opacity="40%" fill="#fffab3" mask="url('#rm0')" />
            
                <rect x="381.2736553102054px" y="166.81px" width="133.45522897867482px" height="2px" rx="1.0px" ry="1.0px" opacity="40%" fill="#fffab3" mask="url('#rm1')" />
            
                <rect x="380.59999269263676px" y="168.32434px" width="137.2864421267639px" height="2px" rx="1.0px" ry="1.0px" opacity="40%" fill="#fffab3" mask="url('#rm2')" />
            
                <rect x="377.8464043340502px" y="169.95074116px" width="140.88114426228785px" height="2px" rx="1.0px" ry="1.0px" opacity="40%" fill="#fffab3" mask="url('#rm3')" />
            
                <rect x="377.61130902898884px" y="171.69749600584px" width="144.18672848206845px" height="2px" rx="1.0px" ry="1.0px" opacity="40%" fill="#fffab3" mask="url('#rm4')" />
            
                <rect x="376.15447280222304px" y="173.57351071027216px" width="147.1395684571437px" height="2px" rx="1.0px" ry="1.0px" opacity="40%" fill="#fffab3" mask="url('#rm5')" />
            
                <rect x="373.6094650265918px" y="175.58835050283233px" width="149.6624342281477px" height="2px" rx="1.0px" ry="1.0px" opacity="40%" fill="#fffab3" mask="url('#rm6')" />
            
                <rect x="369.9370367095791px" y="177.7522884400419px" width="151.66102252798828px" height="2px" rx="1.0px" ry="1.0px" opacity="40%" fill="#fffab3" mask="url('#rm7')" />
            
                <rect x="370.4475603572272px" y="180.07635778460502px" width="153.01918782291602px" height="2px" rx="1.0px" ry="1.0px" opacity="40%" fill="#fffab3" mask="url('#rm8')" />
            <rect class="wave1" style="animation-delay: 0s" width="896.0px" height="44.8px" y="181.33333333333331px" fill="#b5afc7" />
                <rect class="wave1" style="animation-delay: 0.0s" x="371.33805460255235px" y="181.15px" width="153.43631515094654px" height="2.5px" rx="1.25px" ry="1.25px" opacity="40.0%" fill="#fffab3" mask="url('#rm9')" />
            
                <rect class="wave1" style="animation-delay: 0.1351102941176467s" x="373.45728154579626px" y="183.775px" width="153.50794874857158px" height="2.5px" rx="1.25px" ry="1.25px" opacity="36.91176470588236%" fill="#fffab3" mask="url('#rm10')" />
            
                <rect class="wave1" style="animation-delay: 0.2803538602941172s" x="369.7631297649658px" y="186.596875px" width="152.46312833883445px" height="2.5px" rx="1.25px" ry="1.25px" opacity="33.59191176470589%" fill="#fffab3" mask="url('#rm11')" />
            
                <rect class="wave1" style="animation-delay: 0.4364906939338227s" x="374.2175401550247px" y="189.630390625px" width="150.01531091138665px" height="2.5px" rx="1.25px" ry="1.25px" opacity="30.023069852941195%" fill="#fffab3" mask="url('#rm12')" />
            
                <rect class="wave1" style="animation-delay: 0.6043377900965062s" x="376.8030713946816px" y="192.89141992187498px" width="145.77433060016514px" height="2.5px" rx="1.25px" ry="1.25px" opacity="26.18656479779414%" fill="#fffab3" mask="url('#rm13')" />
            
                <rect class="wave1" style="animation-delay: 0.7847734184713913s" x="376.28828193320464px" y="196.3970264160156px" width="139.1825639345338px" height="2.5px" rx="1.25px" ry="1.25px" opacity="22.062321863511055%" fill="#fffab3" mask="url('#rm14')" />
            
                <rect class="wave1" style="animation-delay: 0.9787417189743922s" x="381.1363682100418px" y="200.16555339721677px" width="129.38405202082185px" height="2.5px" rx="1.25px" ry="1.25px" opacity="17.62876070915675%" fill="#fffab3" mask="url('#rm15')" />
            
                <rect class="wave1" style="animation-delay: 1.1872576420151186s" x="389.0897729840736px" y="204.21671990200804px" width="114.90742785332756px" height="2.5px" rx="1.25px" ry="1.25px" opacity="12.862682468225861%" fill="#fffab3" mask="url('#rm16')" />
            
                <rect class="wave1" style="animation-delay: 1.4114122592838991s" x="401.2120785083165px" y="208.57172389465862px" width="92.65120832128403px" height="2.5px" rx="1.25px" ry="1.25px" opacity="7.739148359225162%" fill="#fffab3" mask="url('#rm17')" />
            
                <rect class="wave1" style="animation-delay: 1.6523784728478381s" x="421.5465127417282px" y="213.253353186758px" width="51.70437660519749px" height="2.5px" rx="1.25px" ry="1.25px" opacity="2.231349192049412%" fill="#fffab3" mask="url('#rm18')" />
            <rect width="896.0px" height="40.32px" y="215.67999999999998px" rx="15px" ry="15px" fill="#92a7da" /><rect class="wave2" style="animation-delay: 0.6666666666666666s" width="896.0px" height="26.879999999999995px" y="211.2px" fill="#92a7da" />
        </g>
        <g class="fade-in" style="animation-delay: 3.25s" fill="#3b1a06">
            <ellipse cx="50%" cy="100%" rx="16.5%" ry="19.2px" />
            
        <svg version="1.1" id="layer" width="270.08px" height="270.08px" x="407.68px" y="6.4px" viewBox="0 0 720 720">
            
    <path d="M412.2,161c0,0.1,0,0.1-0.1,0.2c0,0-0.1,0-0.1,0C411.9,161,412.1,161,412.2,161z" />
    <path d="M383.8,120.8c0,0.1,0,0.2-0.2,0.2c0,0,0-0.1,0-0.1C383.7,120.9,383.8,120.8,383.8,120.8z" />
    <path d="M377.1,107.9c0,0.1,0,0.2,0,0.2c-0.1,0.1-0.2,0.1-0.2-0.1C376.9,108,377,107.9,377.1,107.9z" />
    <path d="M304.8,164.4c-0.1,0-0.1-0.1-0.2-0.2c0.1,0,0.2,0,0.2,0c0,0,0.1,0.1,0.1,0.1C305,164.4,304.9,164.5,304.8,164.4z" />
    <path d="M267,185.7c0,0,0.1,0.1,0.1,0.2c-0.1,0-0.2,0.1-0.3,0.1c0,0-0.1,0-0.1,0C266.8,185.8,266.9,185.7,267,185.7z" />
    <path d="M268.4,190.1c0.1-0.1,0.1-0.1,0.2-0.2c0,0,0.1,0.1,0.1,0.1C268.6,190.1,268.5,190.1,268.4,190.1z" />
    <path d="M297.3,194.6c-0.1,0-0.1-0.1-0.2-0.2c0.1,0,0.2,0,0.3,0c0.1,0,0.1,0,0.1,0c0,0,0,0,0,0C297.5,194.6,297.4,194.6,297.3,194.6     z" />
    <path d="M340.7,229.9c0.1,0.1,0.2,0.2,0.2,0.2c0,0.1-0.1,0.2-0.2,0.3c0-0.1,0-0.2,0-0.2C340.6,230,340.7,230,340.7,229.9z" />
    <path d="M340.1,228.9c0,0,0.1,0.1,0,0.1C340.1,229.1,340,229,340.1,228.9C340,228.9,340.1,228.9,340.1,228.9z" />
    <path d="M368.4,175.2c0.1,0,0.2,0,0.3,0c-0.1,0.1-0.2,0.1-0.3,0.2c0,0-0.1,0-0.1,0C368.3,175.3,368.3,175.2,368.4,175.2z" />
    <path d="M418.5,364.1C418.5,364.1,418.6,364.1,418.5,364.1C418.6,364.1,418.5,364.1,418.5,364.1     C418.5,364.1,418.5,364.1,418.5,364.1z" />
    <path d="M479.9,249.4c0.1,0.1,0.1,0.1,0.2,0.2c0,0,0,0.1,0,0.1c-0.2,0.1-0.2-0.1-0.2-0.2C479.8,249.5,479.9,249.5,479.9,249.4z" />
    <path d="M451.6,201.6c0,0,0-0.1,0.1-0.1c0,0,0.1,0.1,0.1,0.1c0,0,0,0.1-0.1,0.1C451.6,201.7,451.6,201.7,451.6,201.6z" />
    <path d="M483.6,211.1c0,0,0.1-0.1,0.1-0.1c0.2,0,0.3,0,0.2,0.2C483.8,211.3,483.7,211.2,483.6,211.1z" />
    <path d="M544.7,208.6c-0.4-0.4-0.8-0.7-1.3-1c-2.1-1.6-4.5-2.7-7-3.5c-2.9-0.9-5.8-1.5-8.8-1.9c-2-0.3-3.9-0.5-6-1.1     c0.9-0.3,1.6-0.3,2.3-0.4c3.8-0.6,7.5-1.7,11.1-3c0.3-0.1,0.7-0.2,0.6-0.7c-1-0.5-2.2-0.5-3.4-0.7c-1.2-0.2-2.3-0.3-3.5-0.5     c-1.2-0.1-2.3-0.2-3.5-0.4c-1.2-0.1-2.3-0.2-3.5-0.3c-1.1-0.1-2.2-0.1-3.4-0.2c-1.2-0.1-2.4-0.1-3.5-0.1c-1.2,0-2.4,0-3.5,0     c-1.1,0-2.3,0-3.5-0.1c0.4-0.3,0.7-0.4,1.1-0.5c1.9-0.6,3.9-1.2,5.8-1.9c1.5-0.5,2.9-1.2,4.2-2c0.2-0.2,0.6-0.2,0.6-0.7     c-0.1-0.3-0.4-0.3-0.7-0.3c-2.1,0-4.2,0.2-6.2,0.6c-4,0.7-7.9,1.5-11.8,2.3c-1.5,0.3-3.1,0.5-4.6,0.7c-0.6,0.1-1.3,0.1-1.9,0.1     c0-0.5,0.3-0.5,0.5-0.5c1.6-0.7,3.2-1.5,4.8-2.3c0.2-0.1,0.5-0.3,0.4-0.6c-0.2-0.2-0.4-0.2-0.6-0.2c-0.8,0-1.6,0-2.4-0.2     c-1.4-0.2-2.8-0.2-4.2,0.1c-3.2,0.6-6.3,1.2-9.4,1.9c-0.7,0.2-1.2,0-1.9-0.2c-3.4-1.4-6.8-2.9-10.2-4.3c-8.7-3.5-17.5-6.3-26.6-8.4     c-3.7-0.8-7.3-1.5-11-2.1c-0.2,0-0.3-0.1-0.6-0.1c0.6-0.3,1.2-0.4,1.7-0.5c3.6-0.4,7.3-0.6,10.9-0.6c0.5,0,1,0.1,1.4-0.1     c0.3-0.1,0.3-0.5,0.1-0.7c-0.3-0.3-0.7-0.4-1.1-0.6c-2.4-1-5-1.6-7.6-2c-2-0.3-4-0.4-5.9-0.5c-3.3-0.2-6.6-0.4-10-0.4     c-4.8,0-9.5,0.3-14.2,1.2l10.4-6.5c0,0,0,0,0,0c2-1,4.1-2,6.1-3c3.9-1.9,7.9-3.8,12.1-5.1c0.2-0.1,0.4-0.2,0.6-0.3     c0.1,0,0.1-0.2,0.2-0.2c0-0.3-0.2-0.4-0.4-0.4c-0.9,0.1-1.7,0.2-2.5,0.3c-4.4,0.6-8.8,1.1-13.2,1.9c-2.7,0.5-5.3,1.2-7.9,2     c-0.5,0.1-1,0.4-1.5,0.2c0.4-0.4,0.9-0.5,1.4-0.8c5-2.4,9.7-5.2,14.1-8.6c1.6-1.2,3.2-2.4,4.8-3.5c2.9-2.1,6-3.9,9.4-5.2     c0.1-0.1,0.3-0.1,0.4-0.2c0.2-0.1,0.4-0.3,0.3-0.5c-0.1-0.3-0.3-0.4-0.6-0.4c-1,0.2-2,0.3-2.9,0.7c-2.2,0.8-4.4,1.5-6.8,1.9     c-3.7,0.7-7.1,2-10.5,3.6c-3.1,1.4-6.1,3-9.1,4.7c-1.5,0.9-3,1.7-4.5,2.6c-0.3,0.1-0.5,0.4-1,0.2c0.6-0.5,1.1-1,1.6-1.4     c1.9-1.6,4-3.1,6.1-4.4c2.5-1.6,5.1-2.9,7.7-4.3c6.6-3.4,13.1-7,19.5-10.9c0.4-0.3,0.8-0.5,1.2-0.8c0.1-0.1,0.1-0.2,0.1-0.3     c-0.8-0.7-1-0.8-3.1-0.4c-0.1-0.3,0.2-0.5,0.4-0.6c1.5-1.3,3.1-2.2,4.9-3.1c0.3-0.1,0.6-0.2,0.8-0.5c0,0,0-0.1,0-0.1     c-0.2-0.4-0.5-0.3-0.8-0.3c-2.1,0.1-4.1,0.4-6.2,1.1c-2.5,0.8-4.9,1.8-7.3,2.9c-3.6,1.8-7.2,3.5-10.9,5.1c-0.5,0.2-0.9,0.6-1.4,0.4     c0.4-0.5,0.9-0.7,1.4-0.9c7.4-4.2,14.6-8.6,21.8-13c0.3-0.2,0.6-0.2,0.7-0.6c-0.1-0.3-0.3-0.2-0.5-0.2c-3.9,1-7.9,2.1-11.7,3.6     c-2.3,0.9-4.4,2.1-6.6,3.3c-1.1,0.6-2.1,1.3-3.3,1.7c-0.1-0.4,0.2-0.5,0.3-0.6c2-1.5,4-2.9,6.1-4.2c6.1-3.8,12.2-7.5,18.4-11.2     c3.7-2.2,7.3-4.4,11-6.7c0.4-0.3,0.9-0.5,1.3-1.1c-0.9,0.2-1.6,0.4-2.3,0.5c-4.9,1.3-9.5,3.2-14,5.5c-9.8,4.9-18.9,11-27.4,17.9     c-15,12.3-28.2,26.3-39.4,42.2c-0.2,0.3-0.4,0.5-0.6,0.8c-0.1,0.1-0.1,0.2-0.3,0.3c-0.1,0-0.4,0.1-0.6,0c-1.4-0.3-2.8-0.2-4.2,0     c-0.5,0.1-0.9,0.1-1.4,0.1c-0.1-0.4,0.3-0.5,0.6-0.6c2.2-1.1,4.4-2.2,6.6-3.4c0.3-0.2,0.8-0.2,0.8-0.8c-0.4-0.2-0.8-0.1-1.2-0.1     c-1.6,0.2-3.2,0.5-4.8,0.7c-1.5,0.2-3,0.5-4.4,0.7c-0.4,0.1-0.8,0.2-1.4-0.1c1.5-0.8,2.9-1.3,4.3-2c1.4-0.7,2.8-1.4,4.2-2     c1.4-0.7,2.8-1.3,4.2-2c-0.3-1.7-1.6-1.2-2.7-1.3c0.2-0.6,0.7-0.9,1.1-1.2c1-0.9,2.2-1.6,3.3-2.3c0.9-0.6,1.9-1.2,2.6-2.1     c0.2-0.2,0.4-0.4,0.2-0.8c-4.8-0.5-9.4,0.2-14.1,1.4c0-0.2,0.1-0.3,0.2-0.4c1-1,2.3-1.6,3.6-2c2.2-0.7,4.4-1.4,6.6-2.1     c0.8-0.3,1.6-0.6,2.3-1.1c0.5-0.3,1-0.7,1.1-1.4c-1.3-0.6-2.6-0.3-4.2-0.2c1.1-0.5,2-1,2.9-1.4c0.9-0.5,1.8-1,2.6-1.5     c0.9-0.5,1.9-0.8,2.8-1.6c-0.5-0.6-1.1-0.8-1.7-0.8c-1-0.1-2,0-3,0.2c-2.6,0.4-5.3,0.8-8,1.1c-0.4,0.1-0.8,0.1-1.3,0     c0-0.4,0.3-0.4,0.5-0.5c2.1-1.1,4.3-1.9,6.6-2.6c2.9-0.9,5.8-1.7,8.6-2.5c0.5-0.1,1-0.2,1.4-0.6c0-0.4-0.2-0.4-0.4-0.4     c-1.9-0.5-3.7-0.4-5.6-0.1c-2.1,0.3-4.1,0.8-6.1,1.3c-1.8,0.5-3.5,0.9-5.3,1.4c0-0.5,0.4-0.5,0.6-0.7c1-0.6,2.1-0.9,3.1-1.2     c1.4-0.3,2.8-0.7,4.2-0.9c2.3-0.4,4.6-1.1,6.8-1.9c1.6-0.6,3.2-1.3,4.8-1.9c1.7-0.7,3.5-1.4,5.3-1.8c0.4-0.1,0.7-0.2,1-0.4     c0.1-0.4-0.1-0.5-0.4-0.6c-1.3-0.7-2.7-0.8-4.1-0.7c-1.3,0.1-2.6,0.2-3.8,0.4c-1.8,0.2-3.5,0.5-5.2,0.7c-0.6,0.1-1.2,0.1-1.8,0.1     c0-0.5,0.5-0.5,0.7-0.6c1.7-0.5,3.5-0.9,5.3-1.4c1.1-0.3,2.3-0.5,3.3-1c-0.1-0.5-0.5-0.4-0.8-0.4c-2.3,0-4.6,0.1-6.9,0.3     c-1.7,0.2-3.4,0.5-5.1,0.9c-0.3,0.1-0.6,0.2-0.9-0.1c-0.1-0.3,0.1-0.4,0.3-0.5c1.3-1,2.8-1.6,4.3-2c0.9-0.2,1.7-0.4,2.6-0.6     c1.8-0.4,3.5-1.1,5.1-1.9c1.2-0.6,2.4-1.3,3.7-1.7c1.1-0.4,2.3-0.7,3.4-0.1c0.3-0.2,0.3-0.5,0-0.7c-1.2-0.9-2.6-1-4-0.9     c-1.8,0.2-3.5,0.6-5.2,1c-2.1,0.5-4.3,1-6.4,1.3c-0.1,0-0.2,0-0.3-0.1c0.2-0.5,0.6-0.6,1-0.7c2-0.9,4-1.4,6.2-1.6     c4.5-0.5,8.8-1.8,13-3.5c0.3-0.1,0.6-0.2,0.7-0.5c0-0.3-0.2-0.5-0.5-0.6c-1-0.4-2.1-0.5-3.2-0.4c-2.7,0.1-5.5,0.3-8.2,0.5     c-1.8,0.1-3.5,0.5-5.2,1c-0.5,0.2-1.1,0.5-1.6,0.2c1.2-0.9,2.6-1.3,4-1.5c1.4-0.2,2.8-0.4,4.1-0.6c1.2-0.1,2.4-0.5,3.5-1     c2.6-1.2,5.1-2.3,7.7-3.4c1.1-0.5,2.2-0.9,3.4-1.3c1-0.3,2.1-0.7,3.1-0.2c0.3-0.3,0.2-0.5,0-0.7c-0.6-0.6-1.4-0.7-2.3-0.6     c-1.2,0-2.4,0.1-3.6,0.4c-2,0.4-4.1,0.8-6.2,0.8c-0.1-0.3,0.2-0.4,0.4-0.5c0.6-0.4,1.3-0.8,1.9-1.2c1-0.7,2-1.4,3.1-1.8     c0.1-0.5-0.2-0.5-0.5-0.6c-0.6-0.3-1.3-0.2-1.9-0.1c-1.2,0.2-2.3,0.7-3.5,0.7c-1.2,0-2.3,0.5-3.4,1.1c-0.2,0.1-0.3,0-0.5,0     c0.1-0.4,0.5-0.5,0.8-0.6c1.9-0.8,3.7-1.7,5.6-2.5c2.3-1,4.6-2.1,6.7-3.4c1.6-0.9,3.2-1.8,5-2.3c0.1,0,0.2-0.2,0.4-0.3     c0-0.3-0.2-0.4-0.4-0.4c-5,0.1-9.8,1.1-14.3,3.2c-1.1,0.5-2.2,1-3.4,1.5c-0.3,0.1-0.6,0.3-0.9,0c0.1-0.1,0.1-0.3,0.2-0.4     c2.9-2.1,5.5-4.7,8.3-7c1.4-1.2,2.8-2.4,4.2-3.7c2.6-2.3,5.2-4.5,8.1-6.4c0.7-0.5,1.4-1,2-1.5c0.2-0.2,0.5-0.4,0.5-0.7     c-0.1-0.3-0.3-0.3-0.5-0.3c-5.6,0.7-10.9,2.5-15.8,5.4c-1.8,1.1-3.5,2.4-5,3.9c-1.9,1.8-3.9,3.5-5.9,5.2c-0.2,0.2-0.4,0.4-0.7,0.3     c-0.2-0.3,0.1-0.5,0.2-0.7c1.2-2.1,2.2-4.3,3-6.6c0.8-2.1,1.9-3.9,3.5-5.5c0.7-0.7,1.3-1.6,2-2.3c0.2-0.2,0.4-0.5,0.4-0.9     c-0.1-0.2-0.3-0.3-0.5-0.1c-2.2,1.6-4.5,3.1-6.7,4.7c-2.4,1.7-4.3,3.9-5.6,6.5c-2,4-4.3,7.8-6.5,11.6c-0.2,0.3-0.2,0.7-0.7,0.7     c-0.1-1.3,0.4-2.5,0.5-3.8c0.3-3.4,0.4-6.8-0.5-10.2c-0.1-0.5-0.1-0.5-0.6-1c-0.1,0.1-0.2,0.1-0.2,0.2c-0.2,1.2-0.7,2.3-1.3,3.3     c-0.6,1-1,2-1.3,3c-0.5,1.8-1.2,3.5-1.8,5.2c-0.9,2.6-1.3,5.4-1.9,8.1c-0.2,1-0.5,2.1-0.7,3.1c-0.1,0.3-0.1,0.5-0.4,0.7     c-0.3,0-0.2-0.3-0.2-0.5c0-0.8,0.1-1.6,0.1-2.4c0.1-1,0.2-1.9,0.2-2.9c-0.1-2.2,0.3-4.4,0.8-6.5c0.3-1.3,0.6-2.6,0.5-4     c0-0.5,0-1.1-0.4-1.5c-0.2,0-0.4,0.1-0.5,0.3c-0.9,1.5-1.9,3-2.7,4.5c-1.1,2-1.7,4.1-1.9,6.4c-0.3,3.2-0.2,6.3-0.3,9.5     c-0.1,2.3-0.2,4.7-0.9,7c0,0.1-0.1,0.2-0.1,0.4c-0.1,0.2-0.2,0.4-0.5,0.4c-0.5-3.5-0.6-7-1.8-10.4c-0.5,0-0.5,0.3-0.5,0.5     c0.2,2,0,4.1-0.2,6.1c-0.1,1.3,0,2.6,0.1,3.9c0.1,0.8,0.1,1.6,0.2,2.4c0.1,1.4-0.2,2.6-1.1,3.8c-0.8-1.2-0.9-1.4-1-2.7     c-0.1-0.9-0.1-2.3,0-3.1c0.1-1.7,0.1-3.5,0.2-5.2c0.1-2.7,0.3-5.4-0.2-8c-0.2-1-0.4-1.9-0.7-2.8c-0.1-0.3-0.3-0.5-0.4-0.8     c-0.5-0.1-0.7,0.2-0.9,0.4c-1.4,1.4-2.1,3.2-2.5,5.1c-0.4,1.8-0.5,3.7-0.5,5.6c0.1,4.2,0,8.4,0.4,12.5c0.2,1.6,0.3,3.2,0.5,4.8     c0.1,0.9,0.2,1.8-0.1,2.7c-0.2-1.2-0.5-2.5-0.7-3.7c-0.8-5.2-2.2-10.4-3.6-15.5c-0.2-0.7-0.4-1.4-0.9-2c-0.2-0.2-0.4-0.4-0.6-0.3     c-0.3,0.2-0.3,0.5-0.3,0.7c-0.1,4.6-0.2,9.1,0.3,13.7c0.2,1.7,0.5,3.4,0.8,5.1c0.6,3,1,6.1,1.1,9.2c0.2,3,0.4,6,0.5,9.1     c0,0.6,0.1,1.1,0,1.9c-0.6-0.6-0.7-1.2-0.9-1.7c-0.5-1.4-0.7-2.9-1-4.4c-0.4-2.3-0.8-4.6-1.3-6.9c-0.2-0.9-0.5-1.8-0.7-2.6     c-0.1-0.3-0.2-0.6-0.4-0.8c-0.5,0-0.7,0.4-0.9,0.7c-0.8,1.3-1.1,2.7-1.2,4.1c-0.1,1.8,0.2,3.7,0.4,5.5c0.6,4.1,1.6,8.1,2.8,12     c1.1,3.4,2,6.8,2.7,10.3c0.2,1.3,0.4,2.5,0.2,3.8c-0.1,0.4-0.1,0.8-0.5,1.1c-0.4,0-0.5-0.4-0.6-0.6c-0.6-1.3-0.9-2.7-1.1-4.2     c-0.3-2.5-1-4.8-1.8-7.1c-0.4-1-0.8-1.9-1.5-2.7c-0.2-0.3-0.4-0.5-0.7-0.6c-0.4,0.2-0.4,0.5-0.4,0.8c-0.2,3.6-0.5,7.2-0.5,10.8     c0,2.6,0.4,5.1,0.9,7.7c0.7,4,1.5,8,2.2,12c0.6,3.5,1.1,7,1.4,10.5c0.1,1.5,0,3-0.1,4.5c-0.1,2-0.3,4.1,0.2,6.1     c0.2,1,0.4,2.1,0.7,3.1c0.4,1.8,0.9,3.5,1.3,5.3c0.1,0.2,0.1,0.4,0.1,0.6c-0.3,2.1-0.5,4.1-0.8,6.2c0,0-0.1,0.1-0.1,0.2     c-0.3-0.5-0.2-1-0.3-1.4c-0.3-1.2-0.6-2.4-0.6-3.6c0-4-0.8-7.8-1.7-11.7c-1-4.4-1.6-8.8-2.1-13.2c-0.2-1.7-0.4-3.4-0.8-5     c-0.3-1.6-0.6-3.1-0.8-4.7c-0.1-0.8-0.2-1.7-0.6-2.5c-1.1,0-1.6,1-2.3,1.5c-0.5-0.2-0.5-0.6-0.5-1c0-1.7,0-3.3,0.1-5     c0-1.2,0.1-2.4,0.1-3.5c0-0.3,0.1-0.7-0.3-0.9c-0.3-0.1-0.5,0.1-0.7,0.3c-0.8,1-1.4,2.2-1.9,3.4c-0.2,0.4-0.3,0.9-0.6,1.6     c-0.2-0.8-0.1-1.4,0-1.9c0.2-2.3,0.5-4.7,0.7-7c0.1-1.3,0-2.5-0.3-3.8c-0.1-0.7-0.3-1.3-0.4-2c-0.3-1.7-0.5-3.4,0.1-5.1     c0-0.1,0-0.2,0-0.3c0-0.2-0.1-0.3-0.3-0.3c-0.1,0-0.2,0-0.3,0.1c-0.6,0.7-0.8,1.5-1,2.3c-0.1,0.6-0.2,1.1-0.3,1.7     c-0.2,2-0.9,3.9-1.6,5.7c0,0.1-0.1,0.2-0.3,0.1c-0.2-0.3-0.1-0.8-0.1-1.2c0.2-2.7,0.3-5.4,0.5-8c0.3-3.5,0.2-7-0.8-10.4     c-0.3-1-0.5-2-0.7-3c-0.1-0.3-0.1-0.6-0.4-0.8c-0.4-0.1-0.6,0.2-0.7,0.4c-0.2,0.4-0.3,1-0.2,1.4c0.4,2.6,0.3,5.1-0.2,7.6     c-0.3,1.9-0.5,3.9-0.7,5.9c0,0.4,0,0.7-0.4,1c-0.3-0.1-0.2-0.3-0.2-0.5c-0.2-1.2-0.4-2.4-0.6-3.6c-0.2-1.2-0.3-2.4,0.2-3.6     c0.5-1.2,0.4-2.5,0.2-3.8c-0.9-5.5-2.1-10.9-4-16.2c-0.5-1.4-0.9-2.9-1.2-4.3c-0.1-0.4-0.2-0.7-0.3-1c-0.4-0.1-0.5,0.1-0.5,0.3     c-0.1,2.4-0.4,4.7,0.2,7c0.5,1.9,0.7,3.9,0.8,5.9c0,0.5,0.1,1-0.2,1.6c-0.4-0.4-0.4-0.9-0.5-1.4c-0.1-0.4-0.2-0.8-0.3-1.2     c-0.1-0.5-0.2-0.9-0.4-1.4c-0.1-0.4-0.1-0.9-0.4-1.1c-0.3,0-0.4,0.1-0.4,0.3c-0.2,0.7-0.2,1.4-0.1,2.1c0.2,1.4,0.4,2.9,0.6,4.3     c0.2,1.3,0.2,2.6-0.1,3.8c-0.1-1.1-0.2-2.2-0.3-3.2c-0.1-1.3-0.3-2.7-0.8-3.9c-1.5-4.2-2.4-8.5-3.3-12.9c-0.3-1.3-0.7-2.6-1.3-3.7     c-0.1-0.2-0.2-0.3-0.4-0.4c-0.3,0-0.4,0.3-0.5,0.5c-0.4,1-0.3,2-0.1,3c0.1,0.6,0.3,1.2,0.4,1.9c0.2,1.1,0.4,2.2,0.4,3.4     c0,2.7,0.5,5.3,0.9,8c0.2,1.1,0.3,2.1,0.4,3.2c-0.3,0.1-0.5-0.1-0.6-0.3c-0.5-0.7-0.9-1.6-1-2.5c-0.9-7-3.4-13.5-6.5-19.8     c-1.1-2.3-2-4.6-3.1-6.9c-0.3-0.7-0.5-1.4-0.7-2.1c-0.1-0.3-0.1-0.5-0.4-0.7c-0.3,0-0.4,0.2-0.5,0.5c-0.5,1.2-0.5,2.4-0.2,3.6     c0.3,1.4,0.8,2.7,1.4,3.9c1.3,3.1,2.5,6.3,3.4,9.5c0.6,2.1,1,4.1,1.4,6.3c-0.4-0.2-0.5-0.6-0.6-0.9c-1.5-4.3-3-8.6-4.8-12.8     c-0.8-1.9-1.8-3.8-2.7-5.7c-0.1-0.3-0.2-0.7-0.7-0.8c-0.4,0.1-0.2,0.4-0.2,0.7c0.2,2.5,0.5,4.9,0.9,7.3c0.1,0.6,0.2,1.2,0.1,1.7     c-0.4,0.1-0.5-0.2-0.6-0.4c-1.3-2.1-2.1-4.4-2.6-6.7c-0.4-2-0.8-4.1-1.3-6.1c-0.4-2-1.1-3.8-2.1-5.6c-0.6-1-1-2.1-1.6-3.2     c-0.5-1-1.1-1.9-1.9-2.6c-0.2-0.2-0.5-0.4-0.9-0.3c-0.4,2.4-0.6,4.8,0.1,7.3c0.3,1,0.4,2.1,0.2,3.2c-0.4,0.2-0.5-0.1-0.6-0.3     c-0.8-1.5-1.6-3-2.3-4.6c-1-2.2-2.1-4.2-3.3-6.2c-0.8-1.3-1.5-2.6-2.2-3.9c-0.4-0.9-0.9-1.7-1.6-2.4c-0.2-0.2-0.5-0.5-0.8-0.4     c-0.3,0.1-0.3,0.4-0.3,0.7c0,1.4,0.3,2.8,0.7,4.1c0.4,1.3,0.8,2.6,1.2,3.8c0.2,0.6,0.4,1.1,0.4,1.7c-0.5,0-0.5-0.4-0.7-0.6     c-2.4-3.4-5.2-6.4-8.2-9.2c-0.9-0.9-1.8-1.6-3-2.2c-1.3-0.6-2.7-0.9-4.1-0.3c-0.1,0.5,0.3,0.7,0.6,0.9c0.3,0.3,0.7,0.6,1,0.9     c2.3,1.4,4.2,3.2,5.4,5.6c0.9,1.8,2.2,3.3,3.8,4.5c1,0.8,1.8,1.7,2.5,2.7c1.1,1.6,2.1,3.2,2.8,5c0.1,0.3,0.3,0.7,0.1,1.1     c-0.1-0.1-0.3-0.1-0.4-0.2c-0.3-0.3-0.5-0.5-0.8-0.8c-1.5-1.9-3.4-3.3-5.5-4.3c-1.9-0.9-3.8-1.7-5.7-2.6c-0.1-0.1-0.3,0-0.5-0.1     c0,0-0.1,0-0.1,0.1c0,0.1-0.1,0.2-0.1,0.3c0.2,0.2,0.3,0.4,0.5,0.6c2.4,1.9,4.3,4.3,6,6.9c0,0,0.1,0.1,0.1,0.1     c1.3,2.3,3.1,4,5.5,5.3c2.4,1.3,4.6,3,6.5,4.9c0.2,0.2,0.4,0.4,0.6,0.7c-0.4,0.3-0.8,0.2-1.1,0.1c-1.6-0.4-3.1-1-4.5-1.7     c-2.2-1.1-4.3-2.2-6.5-3.3c-1-0.5-1.9-0.9-3-1.2c-0.5-0.2-1.1-0.2-1.6-0.1c-0.4,0.1-0.8,0.3-0.9,0.8c1.4,1.5,3.5,3.1,5,3.6     c6.1,2.2,11.1,6.1,16,10.3c0.1,0.1,0.3,0.3,0.5,0.4c0.2,0.2,0.5,0.4,0.4,0.8c-0.5,0.3-0.9,0-1.4-0.1c-0.9-0.3-1.8-0.6-2.7-1     c-2.2-1-4.5-1.9-6.7-2.6c-1.6-0.5-3.2-1.1-4.8-1.9c-0.2-0.1-0.4-0.1-0.6-0.2c-0.3,0.3-0.2,0.5,0,0.7c1.3,1,2.3,2.3,3.4,3.6     c0.4,0.5,0.8,1,1.2,1.5c1.1,1.3,2.5,2.2,4.1,2.7c0.3,0.1,0.6,0.2,0.9,0.3c2.6,0.7,5,2,7,3.8c0.6,0.5,1.2,1,1.9,1.5     c0.2,0.2,0.4,0.3,0.4,0.6c-5-0.2-5.7-0.1-6.7,0.5c0,0.3,0.2,0.5,0.4,0.6c1.3,1,2.5,2.2,3.6,3.5c0.4,0.4,0.8,0.9,1.2,1.3     c1.6,1.8,3.4,3.3,5.4,4.5c1.1,0.7,2.2,1.3,3.3,2c0.2,0.1,0.5,0.2,0.4,0.5c-0.6,0.1-1-0.3-1.5-0.5c-1.6-0.6-3.1-1.1-4.8-1.3     c-1.2-0.2-2.5,0-3.7,0.3c-0.2,0.1-0.4,0.2-0.4,0.4c0,0.1,0,0.2,0.1,0.3c1.1,0.9,2.2,1.9,3.4,2.7c2.1,1.5,4.5,2.3,7,2.6     c0.8,0.1,1.6,0.2,2.4,0.3c1.2,0.2,1.8,0.5,2.8,1.4c-0.1,0.4-0.4,0.3-0.6,0.3c-2.1,0-4.1-0.4-6-0.9c-1.6-0.4-3.1-0.8-4.7-1.3     c-1.3-0.4-2.7-0.6-4.1-0.7c-1-0.1-2,0-3,0.2c-0.1,0.3,0,0.5,0.2,0.6c1.2,0.8,2.4,1.7,3.5,2.5c1.2,0.8,2.7,1.4,4.2,1.6     c1.8,0.3,3.6,0.8,5.3,1.4c2.2,0.8,4.4,1.6,6.7,2.2c0.9,0.2,1.8,0.5,2.7,1.2c-0.8-0.2-1.3-0.3-1.9-0.4c-1.5-0.3-2.9-0.6-4.4-0.8     c-2-0.3-4.1-0.2-6,0.3c-2.3-1.2-2.3-1.2-3-1c1,1.5,2.3,2.7,3.1,4.4c-0.5,0.3-0.9,0.3-1.3,0c-0.1-0.1-0.1-0.2-0.2-0.2     c-2.2-2.6-4.7-5-7.2-7.3c-4.4-4-8.5-8.3-12.8-12.5c-1-1-2-1.9-3.2-2.6c-1.1-0.6-2.2-1-3.5-0.9c-0.3,0-0.6,0.1-0.7,0.5     c0,0.3,0.2,0.4,0.3,0.5c4.1,3,7.3,6.9,10.3,11c1,1.4,2,2.9,3.3,4.1c-0.4,0.4-0.6,0.1-0.9,0c-1.2-0.4-2.2-1-3.2-1.8     c-1.4-1.1-2.6-2.4-3.8-3.7c-1.2-1.3-2.3-2.5-3.5-3.8c-1.1-1.2-2.4-2.1-3.8-2.9c-2.1-1.2-4.2-2.5-6.3-3.5c-2.1-1-4.2-1.9-6.5-2.2     c-1-0.2-1.9-0.2-2.9-0.1c-0.2,0-0.4,0.1-0.4,0.5c0,0.2,0.3,0.2,0.4,0.3c1.6,0.6,3,1.6,4.3,2.7c0.3,0.3,0.7,0.6,1,0.9     c2,1.9,4,3.9,6,5.8c0.5,0.5,1,1,1.3,1.6c-0.5,0.4-0.9,0-1.2-0.1c-0.3-0.1-0.6-0.2-0.9-0.3c-3-1.5-5.9-3-8.9-4.6     c-3.2-1.6-6.4-3.2-9.9-4.2c-2.7-0.8-5.5-1.3-8.4-1.2c-0.3,0-0.6,0-1,0c-0.1,0-0.2,0.1-0.3,0.1c-0.2,0.3,0,0.5,0.3,0.6     c0.3,0.1,0.6,0.2,0.9,0.3c6.6,1.6,12.4,4.6,17.6,8.9c0.2,0.2,0.5,0.3,0.5,0.7c-0.9,0-1.7-0.3-2.5-0.5c-3.5-1-7-2-10.6-2.8     c-4.5-1-9.1-1.6-13.7-1.8c-4.2-0.2-8.4-0.2-12.5-0.4c-1.3,0-2.7-0.1-4-0.2c-0.4,0-0.8-0.1-1,0.5c0.3,1,1.1,1.5,1.9,2     c1,0.5,2.1,0.8,3.2,1c1.8,0.3,3.5,0.8,5.3,1.4c0.3,0.1,0.8,0.1,1,0.5c-0.4,0.2-0.8,0.2-1.2,0.2c-7.1,0.2-14.2,1.1-21.2,2.4     c-6,1.1-11.9,2.6-17.7,4.5c-2.1,0.7-4.3,1.2-6.4,2.1c-0.9,0.4-1.8,0.8-2.6,1.3c-0.1,0.1-0.2,0.3-0.1,0.4c0,0.1,0.2,0.3,0.3,0.3     c0.4,0.1,0.8,0.1,1.3,0.1c4.3,0.2,8.6-0.1,12.8-0.8c5.5-0.8,10.9-2,16.3-2.9c1.1-0.2,2.1-0.3,3.2-0.5c-0.2,0.6-0.6,0.7-1,0.8     c-1.7,0.8-3.5,1.6-5.3,2.4c-2.2,0.9-4.5,1.8-6.6,2.9c-0.4,0.2-0.8,0.3-0.9,0.8c0.4,0.4,0.9,0.3,1.3,0.3c1.5-0.1,3-0.3,4.4-0.7     c4.3-1.4,8.6-2.6,12.9-4.1c2-0.7,3.9-1.4,6-1.6c1-0.1,2-0.1,3,0.2c0.1,0.4-0.2,0.5-0.4,0.6c-0.9,0.6-1.8,1.3-2.8,1.9     c-3.8,2.4-7.6,4.6-11.5,6.7c-6.2,3.4-12.4,6.8-18.6,10.2c-0.5,0.3-1.1,0.4-1.4,1.1c0.4,0.7,1.1,0.9,1.9,1c0.9,0.1,1.8,0,2.7-0.2     c1.1-0.3,2.3-0.6,3.4-1c3.2-1.2,6.3-2.3,9.5-3.5c1.7-0.6,3.4-1.4,5.1-2c0.3-0.1,0.6-0.4,1.1-0.3c0,0.4-0.3,0.5-0.5,0.7     c-0.7,0.6-1.3,1.2-1.9,2c-0.5,0.7-0.9,1.4-1,2.2c0,0.3,0,0.5,0.2,0.8c0.5,0.1,0.9-0.2,1.3-0.4c2.5-1.1,4.8-2.4,7.1-3.8     c2-1.3,4.1-2.6,6.1-3.9c1.6-1,3.3-2,4.9-3c3.2-1.9,6.7-3.1,10.3-3.8c0.1,0,0.2,0.1,0.3,0.1c-0.4,0.4-0.9,0.6-1.4,0.8     c-3.6,1.9-7.2,4-10.8,6.1c-2,1.2-3.9,2.4-5.6,3.9c-0.9,0.8-2.3,2.3-2.9,3.4c-0.4,0.6-0.6,1.2-0.8,1.8c0.2,0.3,0.5,0.3,0.7,0.2     c1-0.3,1.9-0.8,2.8-1.3c3-1.7,6.1-3.4,9.1-5.1c5.7-3.1,11.3-6.1,17.3-8.6c3.9-1.7,8-3.2,12.1-4.2c1.2-0.3,2.4-0.5,3.6-0.8     c-0.1,0.5-0.6,0.6-0.9,0.8c-3.5,2.2-7,4.3-10.5,6.5c-2.9,1.8-5.8,3.6-8.6,5.7c-2.6,2-5.1,4.1-7.2,6.7c-0.3,0.4-0.7,0.8-0.9,1.4     c0.9,0.3,1.6-0.2,2.3-0.4c0.8-0.2,1.5-0.6,2.3-0.7c-0.3,0.6-0.9,0.7-1.3,1c-3.4,2.2-6.6,4.6-9.2,7.7c-1,1.1-1.9,2.2-2.7,3.4     c-0.4,0.6-0.8,0.9-1.5,1.1c-2.8,1-5.6,2.2-8.2,3.7c-1.1,0.6-2.1,1.3-3.1,2c-0.3,0.2-0.5,0.3-0.6,0.6c0.1,0.4,0.4,0.3,0.7,0.3     c1.1-0.2,2.2-0.5,3.3-0.8c1.5-0.5,3.1-0.8,4.7-1.3c2.2-0.6,4.4-0.6,6.7-0.4c0,0.5-0.5,0.4-0.8,0.5c-0.4,0.1-0.9,0.2-1.3,0.3     c-2.8,0.3-5.4,1.1-7.9,2.1c-6.3,2.7-12.5,5.3-18.7,8.1c-3,1.3-5.8,2.9-8.5,4.8c-0.3,0.2-0.8,0.4-0.8,0.9c0.3,0.3,0.6,0.1,0.9,0.1     c3.3-0.8,6.5-1.8,9.7-2.8c2.1-0.7,4.3-1.5,6.4-2.2c0.8-0.3,1.5-0.5,2.3-0.6c-0.1,0.5-0.4,0.6-0.7,0.7c-1.9,1.2-3.8,2.3-5.8,3.5     c-1.7,1-3.5,2.1-5.3,3.1c-4.8,2.8-8.8,6.4-12.3,10.7c-2.1,2.5-4,5.2-5.8,7.9c-0.2,0.3-0.4,0.5-0.4,0.8c0.4,0.3,0.6-0.1,0.8-0.2     c2.5-2.1,5.1-4.1,7.7-6c3.7-2.6,7.5-4.9,11.8-6.5c1-0.4,2-0.8,3.1-0.9c-0.2,0.6-0.7,0.9-1.1,1.2c-2.8,2.5-5.6,4.9-8.3,7.3     c-3.1,2.9-6,5.9-8.6,9.4c-2.1,2.8-3.8,5.8-5.1,9.1c-0.2,0.4-0.5,0.8-0.4,1.3c0.2,0.3,0.4,0.2,0.6,0c0.4-0.3,0.7-0.7,1-1     c1.8-1.8,3.6-3.5,5.6-5.1c1.9-1.5,3.9-2.7,5.9-3.8c0.3,0.2,0.1,0.4,0,0.6c-0.6,0.9-1.2,1.8-1.8,2.7c-0.8,1.2-1.7,2.3-2.5,3.5     c-2.4,3.2-4.2,6.9-5.3,10.7c-0.9,3.1-1.7,6.2-2.8,9.3c-0.1,0.2-0.1,0.4,0.1,0.6c0.5,0,0.6-0.4,0.8-0.7c1.6-2,3.1-4,4.5-6.1     c2.1-3.1,4.1-6.2,6.1-9.2c0.3-0.4,0.5-0.9,1-1.2c0.1,0.1,0.2,0.2,0.1,0.2c-1.1,4.2-1.9,8.4-2.8,12.6c-0.3,1.5-0.8,3.1-1.2,4.6     c-0.6,2.1-1,4.2-1.2,6.3c-0.2,1.9,0.1,3.9,0.6,5.7c0.1,0.2,0.2,0.4,0.3,0.6c0,0,0.1,0,0.1,0c0.2,0,0.3-0.2,0.3-0.3     c-0.3-1.5,0.1-3,0.7-4.4c0.3-0.9,0.7-1.7,1.1-2.6c1.8-3.6,3.6-7.3,5.2-11c1.4-3.1,2.7-6.3,3.7-9.6c0.1-0.2,0.2-0.5,0.3-0.8     c0.2,0.3,0.2,0.5,0.2,0.8c0,0.4-0.1,1.1-0.1,1.6c-0.2,1.2-0.4,2.4-0.6,3.6c-0.6,3.6-0.3,7.2,1,10.6c0.1,0.3,0.2,0.6,0.6,0.7     c0.4-0.2,0.4-0.6,0.5-0.9c2.1-7.3,4.3-14.6,6.4-21.9c0.6-1.9,1.2-3.8,2.2-5.5c0.2-0.5,0.4-1,0.8-1.3c0.4,0.2,0.2,0.5,0.2,0.7     c-0.9,4.5-1.2,9-1.6,13.6c-0.2,1.7-0.3,3.4-0.4,5.1c-0.2,3.3,0.1,6.5,0.8,9.7c0.1,0.4,0.1,0.8,0.5,1.1c0.5,0,0.7-0.4,0.9-0.6     c0.8-1,1.4-2.2,1.8-3.4c0.6-1.6,1-3.3,1.4-4.9c0.8-3.4,1.7-6.9,2.3-10.4c0.3-2,0.6-4,0.8-6.1c0.3-2.3,0.7-4.7,1.4-6.9     c0.1-0.4,0.2-0.9,0.6-1.3c0.4,0,0.3,0.3,0.3,0.5c0.1,1.5,0.1,3-0.1,4.5c-0.2,1.8-0.2,3.5-0.2,5.3c0,1.2,0,2.5,0,3.7     c0,2.4,0,4.8-0.3,7.2c-0.1,0.5-0.2,0.9,0,1.4c0.3,0.2,0.5,0.1,0.7-0.1c0.5-0.5,0.8-1,0.9-1.7c0.2-1,0.4-2,0.6-3     c0.2-1.7,0.7-3.3,1.4-4.9c1.1-2.3,1.8-4.8,2.3-7.3c0.2-1.2,0.6-2.4,1-3.6c0.3-0.9,0.7-1.8,1.3-2.5c0.4,0,0.3,0.3,0.3,0.5     c0,3,0,6-0.2,9c-0.1,1.3-0.2,2.6-0.3,3.9c-0.2,1.9,0,3.8,0.5,5.6c0.1,0.5,0.3,0.9,0.7,1.3c0.4,0,0.5-0.2,0.6-0.4     c2.7-7.6,5.3-15.2,6.6-23.2c0.4-2.3,0.5-4.7,0.8-7c0.3-2.4,0.7-4.8,1.6-7c0.3-0.6,0.6-1.3,0.9-1.9c0.1-0.2,0.2-0.5,0.6-0.5     c0.1,0,0.2,0.1,0.2,0.2c0.1,0.3,0.1,0.7,0.1,1c0.1,4.2,0.1,8.3,0.2,12.5c0.1,3.5-0.3,7-0.4,10.4c-0.1,2.1,0,4.3,0.4,6.4     c0.3,1.2,0.6,2.3,1.2,3.3c0.1,0.2,0.3,0.5,0.6,0.5c0.4-0.1,0.5-0.5,0.7-0.8c0.8-1.8,1.4-3.6,1.7-5.5c0.3-2,0.6-3.9,1-5.9     c0.4-2.1,1-4.1,1.9-6c0.1-0.3,0.2-0.6,0.6-0.8c0.4,1.2,0.5,2.4,0.7,3.6c0.4,2.5,0.5,5,0.6,7.5c0,0.4-0.1,0.8,0.4,1     c0.4,0,0.5-0.3,0.7-0.6c0.8-1.4,1.4-3,1.9-4.6c0.6-2,0.9-4.1,1.3-6.1c0.4-2.3,0.9-4.6,1.6-6.9c0.7-2.4,1.4-4.7,1.8-7.2     c0.1-0.4,0.1-0.9,0.5-1.5c0,0.8,0,1.5-0.1,2.1c-0.3,3.2-0.6,6.4-0.7,9.6c-0.1,3.4,0.1,6.8,0.8,10.1c0.1,0.3,0.1,0.5,0.3,0.7     c0,0.1,0.2,0.1,0.2,0.2c0.3,0,0.5-0.1,0.7-0.4c0.8-1,1.4-2.2,1.8-3.4c0.7-1.8,1.1-3.7,1.5-5.6c0.9-4.1,2.1-8.2,3.3-12.3     c0.1-0.2,0.2-0.5,0.4-0.8c0.3,0.4,0.1,0.8,0.1,1.1c-0.3,3.1-0.3,6.1,0.1,9.1c0.3,1.9,0.8,3.8,1.7,5.5c0.1,0.2,0.3,0.4,0.5,0.6     c0,0,0.1,0,0.2,0c0.5-0.3,0.6-0.8,0.8-1.3c1.2-2.8,2.1-5.7,2.9-8.7c0.9-3.4,2.5-6.5,4.3-9.5c0.1-0.2,0.3-0.3,0.6-0.4     c-0.8,3.6-1.3,7.2-0.8,10.8c0.1,0.6,0.1,1.3,0.6,1.8c0.5,0.1,0.6-0.3,0.7-0.5c1.1-2,2.2-4.1,3.2-6.1c1.9-3.7,3.9-7.3,6.1-10.8     c0.4-0.6,0.7-1.2,1.3-1.7c0.3,0.3,0.1,0.6,0,0.9c-1.1,3.7-2.3,7.5-3.4,11.2c-1,3.4-1.9,6.9-2.6,10.4c-0.1,0.4-0.2,0.7,0,1.1     c0.4,0.2,0.6,0,0.8-0.3c0.9-1,1.8-2.2,2.5-3.4c1.1-1.9,2.2-3.8,3.3-5.7c0.5-0.9,1-1.9,1.6-2.8c0.3-0.5,0.6-0.9,0.9-1.3     c0.4,0.3,0,0.6,0,0.8c-0.1,0.7-0.3,1.3-0.7,1.8c-1,1.6-1.3,3.3-1.3,5.1c0,1.3,0,2.6,0.1,3.9c0,0.2,0.1,0.3,0.1,0.4     c0.3,0.2,0.5,0.1,0.8-0.1c0.8-0.6,1.5-1.3,2-2.2c0.6-1,1.2-2,1.6-3.1c0.5-1.2,1.1-2.4,1.7-3.5c1.5-2.6,3.8-4.4,6.5-5.9     c0.2-0.1,0.4-0.1,0.6,0c0.1,0.4-0.1,0.7-0.2,1c-0.6,1.3-1.2,2.5-1.8,3.8c-0.8,1.6-1.6,3.3-2.3,5c-0.5,1.3-0.8,2.5-1.1,3.9     c-0.1,0.4-0.2,0.8,0.1,1.2c0.3,0.2,0.6,0,0.7-0.2c0.6-0.6,1.2-1.3,1.7-1.9c1.6-1.8,3.4-3.3,5.4-4.5c0.9-0.5,1.7-1.1,2.6-1.6     c0.4,0,0.5,0.3,0.7,0.3c0.3,0,0.5-0.2,0.7-0.3c1-0.9,1.9-1.9,2.9-2.8c1.3-1.2,2.6-2.4,4.1-3.4c0.2-0.1,0.4-0.4,0.7-0.2     c0,0.1,0,0.2,0,0.3c-1.6,2.8-2.9,5.7-4.4,8.6c-0.7,1.4-1.5,2.7-2.3,4.1c-0.2,0.4-0.5,0.7-0.7,1c-1.1,0.4-2.3,0.5-3.4,0.6     c-9.7,1.7-18.9,4.5-27.9,8.4c-11,4.7-21.3,10.6-31,17.6c-0.9,0.7-1.9,1.3-3,1.8c-2.1,1.1-4.2,2.1-6.3,3.3c-3.7,1.9-7.1,4.2-10.2,7     c-3.9,3.4-7.6,7-11.3,10.5c-2.7,2.5-5.4,5.1-8,7.7c-2.1,2-4,4.2-5.9,6.4c-5.2,5.9-8.9,12.7-11.9,19.9c-0.1,0.2-0.3,0.5,0,0.8     c0.7-0.5,1-1.2,1.5-1.8c0.5-0.6,0.9-1.3,1.4-2c0.5-0.6,0.9-1.2,1.4-1.8c0.5-0.6,1.1-1.2,1.6-1.8c0.3,0.3,0,0.5,0,0.6     c-1.1,1.8-2.1,3.6-3.1,5.5c-1.6,3.1-3.3,6.2-5.1,9.3c-3.3,5.6-5.4,11.6-7,17.9c0,0.2-0.2,0.4,0,0.6c0.3,0.1,0.4-0.2,0.5-0.4     c0.9-1.7,1.7-3.3,2.6-5c1.3-2.3,2.8-4.5,4.5-6.5c0.4-0.5,0.9-1.1,1.5-1.4c0.3,0.6,0.1,1-0.1,1.5c-0.5,1.4-1.1,2.8-1.7,4.1     c-1,2.3-1.8,4.6-2.2,7.1c-0.2,1.3-0.5,2.6-0.7,3.9c-0.5,3.9-1,7.9-1.5,11.8c-0.1,1.1-0.2,2.1-0.1,3.3c0.6-0.4,0.5-0.9,0.6-1.3     c0.4-2.1,0.9-4.2,1.5-6.2c1.7-6,4.1-11.7,6.7-17.4c2-4.2,4.1-8.3,6.2-12.4c0.1-0.3,0.3-0.5,0.5-0.8c0.4,0.1,0.3,0.4,0.3,0.7     c0.1,1.6-0.2,3.1-0.5,4.6c-0.9,4.3-1.4,8.7-1.8,13c-0.2,2.1-0.6,4.2-1.1,6.3c-0.1,0.3-0.2,0.5,0,0.8c0.5-0.3,0.6-0.9,0.8-1.3     c1.2-2.8,2.1-5.6,2.9-8.5c0.9-3,1.7-6,2.6-9c0.9-2.9,1.9-5.8,3.2-8.5c1.8-3.8,3.6-7.7,5-11.7c0.1-0.2,0.1-0.4,0.4-0.5     c0.1,1.4-0.2,2.7-0.4,4c-1.2,6.2-2.8,12.2-4.5,18.2c-0.7,2.6-1.5,5.3-2.2,7.9c-0.5,2.1-0.9,4.2-0.8,6.4c0,2,0.5,3.9,1.4,5.7     c0.1,0.3,0.2,0.6,0.7,0.7c0.3-0.5,0.3-1,0.5-1.6c0.9-4.5,1.9-9,3.1-13.5c1.2-4.4,2.5-8.6,4.3-12.8c1.2-2.8,2.2-5.6,2.9-8.5     c0-0.1,0.1-0.2,0.2-0.2c0.3,0.2,0.3,0.4,0.4,0.7c0.6,2.5,1.1,5,1.7,7.5c0.7,2.8,0.8,5.6,0.9,8.5c0.1,1.5,0.1,3,0.4,4.5     c0.1,0.3,0,0.7,0.4,0.9c0.4,0,0.4-0.4,0.5-0.6c0.7-2.3,1.2-4.5,1.7-6.9c0.8-4.4,1.2-8.9,1.6-13.4c0.5-5.3,1-10.6,2.2-15.7     c0.1-0.5,0.3-1,0.4-1.5c0.3,0.2,0.3,0.4,0.3,0.6c0.2,4.6,0.8,9.2,1.3,13.8c0.3,3.1,0.6,6.3,0.5,9.5c0,0.3,0,0.6,0.1,1     c0,0,0.1,0.1,0.1,0.1c0.4,0.1,0.4-0.2,0.5-0.4c0.9-1.9,1.2-4,1.5-6.1c0.2-1.5,0.4-3.1,0.7-4.6c0.2-1.3,0.5-2.6,1.3-3.7     c0.5,0.2,0.3,0.6,0.3,0.8c0,2.2,0,4.4,0.3,6.6c0.2,2,0.7,3.9,1.7,5.7c0.3,0.6,0.7,1.2,1.2,1.7c0.5-0.1,0.6-0.5,0.7-0.8     c1.3-3.1,2.4-6.3,3.2-9.6c1.1-4.2,1.8-8.5,2.6-12.8c0.6-3.6,1.3-7.2,1.9-10.8c0.1-0.3,0.1-0.5,0.5-0.5c0-0.2-0.1-0.3-0.1-0.5     c0,0,0,0,0.1,0c0,0.2,0,0.3,0,0.5c-0.3,4.2-0.6,8.4-0.4,12.7c0.1,2.4,0.4,4.7,0.9,7c0.1,0.4,0.1,0.9,0.6,1.3     c0.5-0.2,0.5-0.7,0.6-1.1c0.7-2.4,1.3-4.9,2-7.3c0.4-1.3,0.7-2.7,1-4.1c0.5-2,1.2-4,2.1-5.9c0.5,1,0.7,3,1.2,9.4     c0.2,3.1,0.5,6.2,0.7,9.2c0.4,0.2,0.6,0,0.7-0.3c0.4-1.1,0.9-2.2,1.3-3.3c2.3-6.3,3.9-12.8,5-19.4c0.1-0.6,0.2-1.2,0.6-1.8     c0,6.5,0.4,12.7,0.8,19c0.7-0.1,0.8-0.5,0.9-0.8c1.1-2.4,1.9-4.9,2.5-7.5c0.7-2.6,1.3-5.2,1.9-7.8c0.1-0.5,0.2-0.9,0.6-1.4     c0.2,2.1-0.1,4.1,0.3,6.1c0,0.1,0.1,0.3,0.2,0.4c0.4,0,0.5-0.4,0.6-0.6c0.6-1.6,1.1-3.3,1.5-5.1c0.7-2.9,1.1-5.8,1.6-8.7     c0.5-3.2,1-6.5,1.9-9.6c0.4-1.5,1-3.1,1.6-4.5c0.1-0.3,0.2-0.6,0.6-0.7c0.1,0.2,0.2,0.3,0.2,0.5c0.2,2.1,0.3,4.3,0.1,6.4     c-0.3,3.1-0.8,6.2-1.3,9.2c-0.1,0.8-0.3,1.7-0.4,2.5c-0.1,0.5-0.3,0.9-0.6,1.3c-0.6,0.6-1.2,1.2-1.7,2c0.7,0.3,1.1-0.4,1.8-0.3     c0.3,1-0.1,2.2,0.1,3.2c0.3,0.2,0.5,0.1,0.7-0.1c0.8-1.1,1.4-2.3,1.7-3.6c0.2-0.8,0.7-1.4,1.4-1.8c0.7-0.3,1.3-0.7,2-1.1     c0.4,0.9,0.5,1.7,0.6,2.5c-3.1,3.5-6.7,6.6-9.7,10.1c0.4,0.4,0.6,0.2,0.8,0.1c2-0.8,4-1.8,5.9-2.9c2.8-1.6,5.4-3.4,8.1-5.2     c2.4-1.7,4.9-3.3,7.3-5c2.7-1.8,5.6-3.3,8.7-4.5c1.4-0.6,2.9-1,4.4-1.4c0.2-0.1,0.4,0,0.7,0c-0.3,0.6-0.8,0.8-1.2,1.1     c-2.1,1.4-4.1,2.7-6.2,4.1c-5.5,3.7-11.1,7.3-16.5,11.2c-4,2.8-7.7,6-10.9,9.7c-1.4,1.6-2.7,3.4-3.8,5.2c-0.2,0.4-0.5,0.7-0.6,1.1     c0.2,0.3,0.4,0.1,0.5-0.1c2-2.3,4.5-4,7.2-5.4c4.1-2.1,8.2-4.2,12.3-6.3c0.3-0.1,0.6-0.2,1.1-0.5c-0.4,0.7-0.9,1.1-1.3,1.4     c-3.4,2.9-6.9,5.6-10.5,8.2c-2.7,2.1-5,4.5-6.7,7.5c-0.2,0.3-0.4,0.7-0.5,1c0,0.1,0,0.2,0,0.3c0.3,0.3,0.5,0,0.7-0.1     c1.6-1.1,3.1-2.2,4.7-3.4c3-2.3,6-4.6,9.1-6.9c2.9-2.1,6-3.9,9.3-5.3c0.3,0.3,0,0.5-0.2,0.7c-1.7,1.9-3.4,3.7-5.3,5.4     c-2,1.9-4.1,3.8-6.2,5.6c-2.2,2-4.2,4.1-6,6.5c-1.3,1.8-2.6,3.5-3.9,5.3c-0.2,0.2-0.3,0.4-0.3,0.8c1,0.1,1.7-0.9,2.7-0.9     c0.4,0.5,0.2,1-0.1,1.5c-0.5,0.8-1,1.6-1.5,2.5c-0.2,0.3-0.5,0.6-0.4,1c0.2,0.2,0.4,0.1,0.6,0c1.2-0.4,2.2-1.1,3.2-1.8     c1.3-0.9,2.4-2,3.5-3.1c2.5-2.5,5.3-4.4,8.4-5.9c1-0.5,2-1,3-1.5c0.2,0.4,0,0.4-0.1,0.6c-0.1,0.1-0.2,0.2-0.3,0.3     c-2,1.8-3.9,3.7-5.6,5.8c-3.2,4-5.9,8.4-8.1,13.1c-1,2-1.6,4.1-1.9,6.3c0,0.3,0,0.5,0,0.8c0,0,0.1,0.1,0.2,0.1     c0.5-0.1,0.6-0.5,0.8-0.9c1.6-2.4,3.2-4.8,5-7.1c2.9-3.9,6.2-7.6,9.7-10.9c1.9-1.8,3.9-3.3,5.9-5c0.1-0.1,0.3-0.1,0.4-0.2     c0.2,0.5-0.1,0.7-0.3,1c-1.9,3.2-3.9,6.3-6.2,9.2c-2,2.5-4,5-6,7.6c-1.8,2.3-3.5,4.7-5,7.3c-1.8,3.1-3.2,6.3-3.8,9.8     c-0.2,1.4-0.5,2.7-0.4,4.1c0.3,0.2,0.5,0.1,0.7-0.2c0.9-1.4,1.9-2.8,2.8-4.1c0.6-0.9,1.2-1.8,1.8-2.8c0.3,0.5,0,0.9-0.1,1.2     c-1,2.9-1.8,5.8-2.3,8.9c-0.1,0.7-0.3,1.4-0.2,2.2c0.3,0.1,0.5-0.1,0.6-0.2c0.6-0.8,1.2-1.7,1.6-2.6c0.5-1.1,1-2.1,1.4-3.3     c1.1-2.9,2.3-5.7,3.5-8.5c0.6-1.5,1.4-2.9,2.3-4.2c0.2-0.3,0.3-0.7,0.9-0.7c-0.1,1.2-0.2,2.4-0.5,3.6c-0.6,2.3-1.4,4.5-2.2,6.7     c-0.9,2.6-1.8,5.2-2.2,7.9c-0.8,4.7-0.8,9.3,0.5,13.9c0.2,0.7,0.3,1.5,0.8,2c0.2,0,0.4-0.1,0.4-0.3c0.4-4.5,1.6-8.8,2.7-13.2     c0.5-2,1-4,1.5-5.9c0.3-1.1,0.7-2.3,1.5-3.4c-0.2,1.2-0.4,2.1-0.5,3.1c-0.4,3.4-0.7,6.8-0.7,10.3c0,5.2,0.6,10.3,2.2,15.2     c1.2,3.6,2.8,6.9,5.1,10c0.2,0.3,0.3,0.7,0.8,0.6c0.3-0.2,0.2-0.5,0.2-0.7c0-3.6,0-7.2-0.2-10.8c-0.2-3.2-0.3-6.4-0.4-9.6     c0-0.4-0.2-1,0.4-1.4c0.7,2.8,1.4,5.5,3.5,7.5c0.5-0.2,0.5-0.5,0.5-0.8c0-1.9-0.3-3.7-0.7-5.6c-0.5-2.3-0.6-4.7-0.6-7.1     c0-1,0-2.1,0-3.1c0.4-0.1,0.5,0.2,0.6,0.5c1.3,2.8,2.5,5.7,3.6,8.6c0.8,1.9,1.5,3.8,2.3,5.7c0.7,1.6,1.6,3.1,2.8,4.3     c0.2,0.2,0.4,0.5,0.8,0.3c0.3-0.2,0.2-0.6,0.3-0.9c0.2-2.2-0.1-4.4-0.8-6.5c-0.6-1.8-1.3-3.6-1.9-5.4c-0.8-2.3-1.6-4.6-1.9-7     c-0.1-0.9-0.2-1.8-0.2-2.7c0.4-0.1,0.5,0.2,0.6,0.4c0.6,1.5,1.1,3,1.6,4.5c0.6,1.9,1.3,3.8,2.3,5.5c0.3,0.5,0.5,1,1,1.4     c0.4-0.1,0.5-0.5,0.6-0.8c0.6-1.9,0.5-3.8,0.2-5.7c-0.3-1.7-0.8-3.3-1.4-5c-0.7-2.1-1.4-4.3-1.9-6.5c-0.2-0.7-0.3-1.4-0.1-2.2     c0.6,0.2,0.7,0.7,0.9,1c1.3,2.4,2.6,4.9,3.9,7.4c1.7,3.2,3.4,6.3,5.2,9.4c1.2,1.9,2.4,3.8,3.8,5.6c0.2,0.3,0.4,0.7,0.9,0.8     c0.3-0.1,0.3-0.3,0.4-0.6c0.2-2.4-0.1-4.7-0.8-7c-0.7-2.1-1.5-4.1-2.6-6.1c-1.3-2.4-2.6-4.7-3.9-7c-2.8-5-5.5-9.9-7.7-15.2     c-1-2.3-1.9-4.7-2.6-7.1c-0.6-2.1-1-4.3-0.8-6.5c0-0.6,0-1.2,0.4-1.7c0.3-0.1,0.6,0,0.7,0.3c0.7,1,1.4,1.9,2,2.9     c1.7,2.6,3,5.4,4.2,8.3c1,2.3,1.9,4.5,2.9,6.8c2.1,4.7,4.9,8.9,8.1,12.9c0.2,0.2,0.3,0.4,0.6,0.5c0.4-0.1,0.4-0.4,0.4-0.7     c0.2-1.8,0-3.5-0.4-5.3c-0.7-3.1-1.7-6.1-2.6-9.1c-1.1-3.6-2.3-7.1-3.2-10.8c-0.2-0.8-0.5-1.6-0.4-2.6c0.6,0.4,0.7,0.9,0.9,1.4     c1.8,3.7,3.5,7.4,5.1,11.1c0.8,1.9,1.6,3.7,2.7,5.5c1,1.7,2.1,3.2,3.5,4.5c0.6,0.5,1.2,1.1,1.9,1.3c0.3-0.2,0.3-0.4,0.2-0.6     c-1.5-3.4-2.1-7-2.5-10.6c-0.2-1.8-0.4-3.6-0.7-5.4c-0.4-2.4-1.1-4.8-2.1-7.1c-0.8-1.8-1.7-3.6-2.5-5.4c-1.9-3.7-3-7.5-3.6-11.6     c-0.1-0.5-0.1-0.9-0.2-1.5c0.5,0.2,0.6,0.6,0.8,1c1.5,2.9,3,5.8,4.6,8.6c1.7,2.9,3.4,5.7,5.4,8.4c0.2,0.3,0.3,0.7,0.8,0.6     c0.3-0.2,0.2-0.6,0.2-0.9c0.1-2.9-0.4-5.8-1.2-8.6c-0.7-2.5-1.6-4.9-2.6-7.3c-1.2-3-2.4-6-3.2-9.1c-0.3-1.2-0.5-2.4-0.8-3.6     c-0.1-0.6-0.2-1.2-0.1-1.7c0.3-0.1,0.4,0.1,0.5,0.3c1.4,3.4,3.3,6.5,5.3,9.5c2.3,3.5,4.5,7.1,6.1,10.9c0.1,0.2,0.2,0.4,0.5,0.4     c0.3-0.1,0.3-0.4,0.3-0.6c0.2-1.9,0-3.9-0.3-5.8c-0.4-2.9-1.2-5.8-1.9-8.6c-0.2-0.6-0.3-1.2-0.5-1.9c0.6,0.4,0.7,1,0.9,1.4     c0.7,1.6,1.3,3.3,1.9,4.9c0.7,1.7,1.4,3.4,2.3,5c0.6,1.1,1.4,2.2,2.3,3.1c0.2,0.2,0.3,0.4,0.7,0.4c0.3-0.1,0.3-0.4,0.3-0.6     c0.2-1.5,0-3-0.2-4.5c-0.4-1.9-1-3.7-1.6-5.6c-0.4-1.4-0.9-2.9-1-4.4c0-0.3,0-0.6,0.3-0.9c0.7,0.5,0.9,1.2,1.2,1.9     c0.4,1,0.8,2.1,1.2,3.2c0.2,0.5,0.5,1.1,0.7,1.6c0.1,0.1,0.2,0.2,0.5,0.1c0.2-0.1,0.1-0.4,0.1-0.7c0.1-3-0.4-6-1.1-8.9     c-0.8-3.2-1.9-6.3-2.9-9.4c-1-3.1-2-6.2-2.6-9.4c-0.5-2.9-0.6-5.8-0.4-8.7c0-0.5,0.2-1.1,0.3-1.5c0.4-0.2,0.5,0.1,0.7,0.3     c0.6,1.1,1,2.4,1.2,3.6c0.2,1.1,0.4,2.2,0.7,3.3c0.5,2.5,1.4,4.8,2.7,7c2.4,4.1,4.6,8.4,6.6,12.8c0.2,0.4,0.4,0.8,0.7,1.2     c0.1,0.1,0.2,0.2,0.4,0.2c0.3-0.1,0.3-0.4,0.3-0.6c0.2-2.3-0.1-4.5-0.6-6.7c-0.6-2.6-1.4-5.2-2.3-7.7c-1.6-4.8-3-9.7-4.2-14.7     c-0.7-3.2-1.2-6.4-1.1-9.7c0-0.3-0.1-0.6,0.2-0.9c0.3,0,0.3,0.2,0.4,0.4c0.9,2.9,2.2,5.6,3.6,8.2c1.1,2.2,2,4.4,2.9,6.6     c0.8,1.9,1.6,3.8,2.7,5.5c0.3,0.5,0.6,1,1.1,1.3c0.4-0.2,0.3-0.5,0.2-0.8c-1.1-3.4-1.3-6.9-1.2-10.5c0-0.1,0-0.2,0.1-0.3l1.3,0.1     c12.3,49,34.4,169.8-6.8,290.3c0,0.1-3.7,7-7.2,15.3l-5.6-22.9c-0.1-0.2-0.4-0.2-0.4,0c-0.3,5.1-1.5,23.8-2.3,36.4     c-1.4-3.4-3.4-7.4-6.2-11c-1.6-1.9-3-4-4.6-5.8c-0.7-0.8-1.4-1.7-2.1-2.5c-1.1-1.3-3.4-4.8-3.4-4.6c2.1,25.1,11.8,37.3,11.6,37.2     c-2.5-2.4-5.3-4.4-8.1-6.4c-1.2-0.8-2.3-1.6-3.5-2.5c-2.7-1.9-5.2-3.9-7.5-6.2c-0.4,0.1-0.5,0.3-0.3,0.6c0,0.1,0.1,0.2,0.2,0.3     c2.5,3.6,4.6,7.4,6.7,11.2c1,1.9,2.1,3.8,3.2,5.6c-1.8-1.9-4.5-4.1-8.2-5c0,0-7.9-2.7-11-7.5c-0.2-0.3-0.6-0.1-0.6,0.2     c1.2,5.1,5,17.2,15.6,24.6c-5.1-0.4-14.6-5.5-14.5-5.3c3.3,5.1,7.5,7.8,10.5,9.4c20.7,6.7,44,7.9,71,2.3c13.2-3,18-15.3,18-15.3     c-3.5,3.6-7.9,4.2-13,6.2c3.9-5.2,4.2-10.9,4.2-10.9c-3.3,3.4-6.9,4.9-8.8,5.5c7.9-13.7,9.2-27.6,9.2-27.6     c-3.1,4.2-6.6,10.9-11.9,13.5c-5.1,2.6-6.4,3.7-7,4.7l0-0.1c4.6-12.4,4.6-34.8,4.7-35.3c12-50.6,30-166.8-15.1-301.4l5.1,2.4     c0,1.2-0.2,2.4-0.4,3.6l1.7,6.9c0.1-0.6,0.5-1.1,1.2-1.6c0.2,1.6,0.1,2.9-0.3,4.3c0,0.1,0,0.1,0,0.2l1.8,7.6     c0.1,0.4,0.6,0.4,0.8,0.1c0.7-1.7,2.1-5,3-6.6c0.1-0.2,0.2-0.5,0.6-0.5c0.4,0.2,0.3,0.5,0.3,0.8c0.1,1.8-0.1,3.5-0.5,5.3     c-0.7,2.8-1.3,5.5-2,8.3c0,0.1,0,0.3-0.1,0.4c0.3,0.8,0.6,1.9,0.9,2.9c0.1,0.3,0.5,0.3,0.6,0c0.5-1.4,1.3-3.8,1.8-5.2     c1.1-3,2.1-6.1,2.6-9.2c0.2-1.1,0.5-2.1,1-3c0.1-0.2,0.2-0.5,0.7-0.5c0,0.3-0.1,0.5-0.1,0.7c-0.3,1.8-0.7,3.7-1,5.5     c-0.8,4.4-1.1,8.8-1.6,13.2c-0.3,2.9,0.2,5.6-0.4,8.4c0,0,0,0.1,0,0.1c0.6,2.3,0.4,5.7,0.9,7.6c0.4-0.8,0.8-1.6,1.1-2.5     c0.6-1.7,1-3.5,1.3-5.3c0.5-2.8,1-5.7,1.9-8.4c1.3-3.8,3-7.4,4.7-11.1c0.1-0.1,0.2-0.2,0.3-0.3c0.2,0.5,0,1-0.1,1.5     c-0.6,2.7-1.5,5.3-2.5,8c-2.8,7.7-4.6,15.7-5.2,23.9c0,0.5-0.1,1-0.2,1.6l0.1,0.5c0.1,0.5,0.8,0.5,1,0.1c1.1-2,1.9-4.1,2.7-6.2     c1-2.6,1.9-5.2,2.9-7.8c0.6-1.7,1.4-3.2,2.3-4.8c0.1-0.2,0.2-0.5,0.6-0.6c-0.5,2.5-1,4.9-1.4,7.3c-0.4,2.4-0.8,4.8-1.1,7.1     c-0.3,2.4-0.5,4.9-0.7,7.4c-0.2,2.4-0.4,4.8-0.3,7.2c0.4,0.2,0.5-0.1,0.6-0.3c1-1.8,2-3.6,2.9-5.4c2.3-4.7,4.2-9.6,6.1-14.5     c0.7-1.9,1.5-3.8,2.3-5.6c0.1-0.3,0.2-0.8,0.7-0.9c0.5,0.3,0.6,0.8,0.5,1.4c-0.3,1.5-0.6,3.1-1.2,4.5c-1.5,3.2-2.3,6.6-2.9,10     c-0.3,2.1-1,4-1.7,6c-0.5,1.7-1.1,3.4-1.6,5.1c-0.3,1.1-0.6,2.3-0.7,3.5c-0.2,1.4-0.2,2.9,0.3,4.3c0.5,0.2,0.6-0.2,0.7-0.4     c1.7-2.9,3.2-5.9,4.6-9c1.8-4.2,3.5-8.5,4.5-13c0.2-1,0.6-1.9,0.9-2.9c0.3-0.7,0.6-1.4,1.1-1.9c0.4,0,0.4,0.3,0.4,0.6     c-0.2,1.4-0.5,2.8-1,4.2c-0.7,1.9-1.4,3.7-2,5.6c-1.8,5.2-3.1,10.4-3.8,15.8c-0.5,3.4-1.1,6.7-1.9,10c-0.5,2.3-0.9,4.7-0.8,7.1     c0,0.6,0,1.3,0.3,1.8c0.4,0.1,0.5-0.1,0.7-0.3c1.2-1.6,2.1-3.3,2.8-5.2c1-2.6,1.5-5.3,2.2-8.1c0.5-2,0.9-4,1.6-5.9     c0.7-1.8,1.5-3.6,2.7-5.1c0.4,0.1,0.3,0.4,0.3,0.6c0,1.6-0.5,3.2-0.9,4.7c-0.7,2.5-1.5,5-2.2,7.6c-0.6,2.1-1,4.2-1.3,6.3     c-0.2,1.4-0.2,2.8-0.1,4.2c0,0.5,0.2,1,0.3,1.5c0.4,0.1,0.6-0.1,0.7-0.3c1.3-2,2.1-4.1,2.8-6.3c0.6-1.9,1.1-3.8,1.6-5.7     c0.6-2.2,1.4-4.3,2.4-6.3c0.1-0.2,0.2-0.5,0.5-0.6c0.3,0.1,0.3,0.3,0.2,0.5c-0.6,6-1.1,12-2.3,17.9c-0.3,1.6-0.5,3.3-0.5,4.9     c0,0.3-0.1,0.6,0.2,0.9c0.3,0.1,0.5,0,0.7-0.2c0.9-0.6,1.5-1.4,2-2.3c0.6-1,1-2.1,1.3-3.3c0.6-1.8,1.1-3.6,1.6-5.4     c0.3-1,0.7-2,1-3.1c0.1-0.3,0.2-0.6,0.6-0.8c0,1.1-0.3,2.1-0.4,3.2c-0.9,5.4-2.4,10.6-3.8,15.8c-0.5,1.6-0.9,3.3-1.3,5     c-0.4,1.7-0.5,3.5-0.2,5.3c0,0.3,0.1,0.5,0.3,0.7c0.3,0.1,0.5-0.2,0.6-0.4c3.2-5.4,6.7-10.6,9.4-16.3c0.5-1,1.1-2,1.6-3     c0.1-0.2,0.2-0.5,0.5-0.5c0.1,0.6-0.3,1.1-0.5,1.6c-0.7,1.6-1.3,3.3-1.6,5c-0.1,0.9-0.3,1.8-0.4,2.7c-0.1,1.4-0.5,2.7-1,4     c-0.7,1.9-1.4,3.8-1.8,5.8c-0.4,1.9-0.5,3.7-0.2,5.6c0.1,0.5,0.1,1,0.5,1.3c0.2-0.1,0.4-0.2,0.4-0.4c-0.1-1.5,0.4-2.9,1.1-4.2     c0.3-0.7,0.7-1.3,1.1-2c1-1.6,1.9-3.2,2.5-5c0.6-1.5,1.4-2.8,2.2-4.4c0.3,0.7,0.1,1.2,0,1.7c-0.4,1.9-0.9,3.8-1.3,5.6     c-0.6,2.3-1.1,4.6-1.2,7c0,1.7,0.1,3.4,0.7,5.1c0.1,0.3,0.2,0.5,0.6,0.5c0.2-1,0.4-2,0.7-2.9c0.3-1,0.7-2,1.2-3     c0.4-0.9,0.8-1.8,1.7-2.9c-0.3,2.2-0.6,4.1-0.7,5.9c-0.2,3.8,0.2,7.6,1.2,11.3c0.5,2.1,1.1,4.1,1.9,6.1c0.3,0.9,0.6,1.8,0.9,2.7     c0.1,0.3,0.1,0.6,0.5,0.8c0.3-0.1,0.4-0.3,0.4-0.6c0.2-1,0.4-2,0.4-3c0-1.8,0-3.5-0.2-5.3c-0.2-1.9-0.2-3.7-0.1-5.9     c0.5,0.7,0.5,1.3,0.6,1.8c0.2,1.5,0.4,3,0.6,4.5c0.2,1,0.4,2.1,0.8,3c1.2,3.1,2.4,6.3,3.4,9.6c0.1,0.3,0.1,0.7,0.6,0.7     c0.3-0.6,0.3-1.3,0.3-2c0-1.8,0-3.6,0-5.5c0-0.5-0.1-1,0.1-1.5c0.4,0,0.5,0.3,0.6,0.5c0.8,1.6,1.4,3.2,2,4.9     c0.8,2.6,1.7,5.2,2.5,7.8c0.1,0.4,0.3,0.8,0.4,1.2c0.4,0,0.4-0.2,0.4-0.4c-0.4-2.3-0.3-4.7-0.2-7.1c0.1-2.1,0.1-4.2,0.2-6.3     c0.1-2.6-0.2-5.1-0.5-7.7c-0.2-2.1-0.6-4.1-0.5-6.2c0-0.3,0.1-0.5,0.1-0.8c0,0,0.1,0,0.1-0.1c0.4,0,0.4,0.3,0.5,0.5     c0.6,1.7,0.9,3.5,1.3,5.3c0.3,1.5,0.6,2.9,1.2,4.3c0.1,0.3,0.2,0.6,0.7,0.7c0.1-0.8,0.1-1.5,0.2-2.3c0.3-1.6,0.4-3.2,0.2-4.8     c-0.2-1.6-0.4-3.3-0.5-5c-0.2-2.6-0.7-5.1-1.3-7.6c-0.4-1.8-0.7-3.6-1-5.4c-0.1-0.7-0.2-1.3,0-2.1c0.5,0.2,0.8,0.5,0.9,0.9     c0.4,1.2,0.8,2.4,1.2,3.7c0.2,0.7,0.4,1.3,0.6,2c0.1,0.2,0.1,0.5,0.4,0.6c0.4-0.1,0.3-0.4,0.3-0.6c0.2-2.5,0.1-4.9-0.3-7.4     c-0.5-3.2-1-6.5-1.9-9.6c-0.5-1.8-1.1-3.6-2-5.2c-1-1.9-1.8-3.9-2.6-5.9c-0.6-1.4-1.1-2.8-1.7-4.2c-0.5-1.2-1-2.3-1.8-3.4     c-0.3-0.4-0.6-0.8-0.6-1.4c0.2-0.2,0.3-0.1,0.5,0c1,0.7,1.7,1.7,2.5,2.6c0.2,0.2,0.4,0.4,0.6,0.5c0.2,0.2,0.4,0.6,0.9,0.5     c0.3-0.1,0.2-0.4,0.2-0.7c0-1.1-0.3-2.2-0.7-3.2c-0.4-1.2-1-2.4-1.7-3.5c-0.7-1.1-1.4-2.2-2.1-3.2c-2-2.8-3.6-5.7-4.8-8.9     c-0.3-0.9-0.8-1.7-1.1-2.8c0.7,0.2,0.9,0.7,1.2,1c0.4,0.4,0.7,0.8,1,1.2c0.3,0.4,0.6,0.9,1,1.1c0.4-0.1,0.3-0.4,0.2-0.5     c-0.4-1.3-0.6-2.7-0.9-4.1c-0.3-1.4-0.7-2.8-1.4-4.1c-1.3-2.5-2.6-4.9-3.9-7.4c-2.6-5-5.9-9.5-9.7-13.5     c-6.3-6.8-13.5-12.6-21.1-17.9c-0.3-0.2-0.5-0.4-0.7-0.6c-5-4.4-10.1-8.9-15.1-13.3c-0.4-0.4-0.8-0.7-1.2-1.1     c0.2-2.1,0.3-4.3,1.4-6.4c0.6,1.7,1.1,3.2,1.7,4.7c0.5,1.5,1,3,1.7,4.4c0.5,0,0.5-0.3,0.5-0.5c0.1-0.9,0.1-1.8,0.4-2.7     c0.1-0.4,0.2-0.8,0.6-1.1c0.5-0.1,0.8,0.3,1,0.6c0.9,1.2,1.6,2.5,2,4c0.3,0.9,0.4,1.9,0.7,2.8c0.3,1,0.5,2,1.1,2.8     c0.1,0.2,0.2,0.5,0.6,0.5c0.3-0.3,0.4-0.7,0.5-1.1c0.2-1.2,0.5-2.4,0.7-3.6c0.1-0.4,0-0.8,0.5-1c1.2,3.6,2.5,7.1,4.3,10.4     c0.6-0.2,0.6-0.6,0.6-0.9c0-0.2,0-0.4,0.1-0.5c0.1-1.7,0-3.4,0-5c0-0.5,0.1-1,0.1-1.5c0.4-0.1,0.5,0.1,0.5,0.3     c0.9,2.1,1.8,4.3,2.7,6.4c0.9,2,1.8,4,3.1,5.8c0.5,0.8,1.1,1.6,1.8,2.1c0.4-0.1,0.5-0.4,0.5-0.6c0.5-2.2,0.6-4.5,0.5-6.7     c-0.1-0.9-0.1-1.7,0-2.9c0.3,2.4,0.5,4.4,0.8,6.5c0.3,1.8,0.7,3.6,1.7,5.2c0.2,0.4,0.4,0.8,0.8,0.9c0.5-0.1,0.4-0.5,0.4-0.8     c0.1-2.7,0.1-5.4-0.1-8c-0.3-3.8-0.5-7.6,0-11.4c0.2-1.3,0.1-2.6,0.2-3.9c0-0.6,0-1.3,0.2-1.9c0.4,0.1,0.4,0.4,0.4,0.6     c0.6,2.7,0.9,5.5,1.2,8.2c0.4,3.4,0.6,6.8,0.7,10.1c0.1,3.5,0.3,6.9,1.2,10.3c0.2,0.9,0.6,1.7,0.9,2.6c0.1,0.2,0.1,0.5,0.5,0.6     c0.1,0,0.1,0,0.2,0c0,0,0.1-0.1,0.1-0.1c0.1-0.6,0.2-1.3,0.2-1.9c0.1-2.2,0.2-4.5,0.3-6.7c0.4,3.3,0.6,6.7,2.4,9.6     c0.4,0,0.5-0.2,0.5-0.4c-0.2-3.5,0.5-6.9,1.3-10.3c0.6-2.3,0.9-4.5,0.8-6.8c0-0.6,0-1.3,0.2-1.9c0.4,0.1,0.4,0.4,0.5,0.7     c0.6,4.4,1.5,8.7,2.3,13c0.7,3.6,1.4,7.3,2,10.9c0.1,0.3,0.1,0.6,0.5,0.8c0.4-1.6,0.6-3.2,1.2-4.7c0.5,0.3,0.4,0.7,0.5,1.1     c0.1,1.4,0.4,2.9,0.7,4.3c0.3,1.1,0.7,2.1,1.3,3.1c0.1,0.2,0.3,0.5,0.6,0.4c0.2-0.1,0.3-0.3,0.3-0.5c0.5-4.5,0.8-9.1,0.3-13.6     c-0.2-1.9-0.5-3.7-0.7-5.5c0.3,0,0.4,0.3,0.4,0.5c0.3,1.6,0.6,3.3,0.9,4.9c0.5,3,1,5.9,1.5,8.9c0.4,2.3,0.7,4.6,0.8,6.9     c0.1,1.6,0.3,3.2,0.6,4.8c0.3,1.3,0.7,2.5,1.4,3.6c0.1,0.2,0.2,0.5,0.6,0.5c0.4,0,0.4-0.4,0.5-0.7c0.7-1.9,1.1-3.9,1.4-5.9     c0.2-1.9,0.3-3.7,0.4-5.6c0.2-5.3,0.3-10.6,0.2-15.9c0-2.7,0.2-5.5,0.6-8.2c0-0.2,0.1-0.4,0.2-0.8c0.4,0.7,0.4,1.4,0.4,2     c0.1,2.5,0.3,5,0.4,7.5c0.1,1.8,0.3,3.6,0.3,5.5c0.1,2.7,0,5.5-0.2,8.2c-0.3,3.3-0.6,6.5-0.1,9.8c0.2,1,0.4,1.9,0.8,2.9     c0.4,0.9,1,1.8,1.7,2.4c0.3-0.1,0.4-0.2,0.5-0.4c0.1-0.4,0.1-0.8,0.1-1.2c0-2.9,0-5.8-0.1-8.7c0-0.6,0-1.3,0-1.9     c0.5,0,0.4,0.3,0.5,0.5c0.8,3.5,1.5,7,1.5,10.6c0,1.4,0,2.8,0.1,4.2c0.1,1.4,0.3,2.8,0.9,4.1c0.4,0.8,0.8,1.5,1.5,1.9     c0.4-0.1,0.4-0.4,0.5-0.6c0.4-1.4,0.7-2.9,0.8-4.4c0.2-1.9,0.4-3.7,0.4-5.6c0-3.4-0.1-6.9-0.1-10.3c-0.1-2.7,0-5.4,0.3-8     c0.1,1,0.2,2,0.3,2.9c0.4,5.3,0.9,10.7,0.8,16.1c-0.1,2.8,0.1,5.7,0.6,8.5c0.2,0.9,0.4,1.9,0.7,2.8c0.1,0.3,0.2,0.6,0.5,0.8     c0.4-0.1,0.4-0.5,0.5-0.8c0.7-2.9,1.1-5.9,1.2-8.9c0.1-2.7,0-5.4-0.2-8c-0.2-3.2-0.4-6.4-0.1-9.6c0.1-0.7,0.1-1.5,0.4-2.2     c0.4,0.1,0.5,0.4,0.6,0.7c0.6,1.7,0.9,3.4,1,5.2c0.1,2.1,0,4.2-0.1,6.3c-0.2,3.6-0.6,7.2-0.6,10.8c0,1.7,0,3.3,0.1,5     c0.2,3.3,0.9,6.6,2.3,9.6c0.2,0.4,0.4,0.9,0.7,1.3c0,0.1,0.2,0.1,0.4,0.2c0.5-0.6,0.5-1.3,0.8-2c0.2-0.7,0.3-1.3,0.6-2.3     c0.7,2.7,0.9,5.2,2.3,7.4c0.6-0.2,0.4-0.6,0.4-0.8c0-3.6,0-7.3-0.1-10.9c-0.1-4-0.2-8-0.1-12.1c0-0.6-0.1-1.3,0.2-1.8     c0.4-0.1,0.5,0.2,0.6,0.4c1.3,3.1,2.4,6.2,3,9.5c1.1,5.2,2.1,10.5,3.2,15.7c0.3,1.6,0.7,3.1,1.3,4.6c0.4,1.1,1,2.1,1.8,2.9     c0.5,0,0.5-0.3,0.5-0.6c0.1-1.6,0-3.1-0.2-4.6c-0.4-2.6-0.9-5.2-0.9-7.8c0-0.5,0-1,0-1.4c0.1-0.9,0.1-1.8,0.2-2.7c0.1,0,0.2,0,0.2,0     c0,0,0.1,0,0.1,0.1c2.1,5.6,4.2,11.2,6.2,16.9c0.6,1.7,1.1,3.5,1.6,5.2c0.4,1.2,0.7,2.5,1,3.7c0,0,0.1,0.1,0.1,0.1     c0.4-0.1,0.4-0.4,0.4-0.7c0.3-2.2,0.6-4.5,0.7-6.7c0.3-6.3-0.2-12.5-1.5-18.7c0-0.1,0-0.3,0-0.6c0.7,0.4,0.9,1.1,1.3,1.6     c0.4,0.5,0.7,1.1,1.1,1.6c0.4,0.6,0.8,1.2,1.1,1.7c0.5-0.1,0.4-0.4,0.3-0.6c-0.4-2.2-1-4.4-1.6-6.6c-1.6-6.1-4-11.9-7-17.4     c-0.1-0.2-0.2-0.4-0.4-0.7c0.3-0.3,0.5,0,0.7,0.1c0.4,0.2,0.6,0.6,1.1,0.6c0.3-0.1,0.3-0.4,0.3-0.7c0.1-1.2-0.3-2.3-0.7-3.4     c-0.6-1.5-1.5-2.8-2.4-4.2c-1.3-1.9-2.7-3.8-4-5.7c-0.3-0.4-0.6-0.9-0.9-1.3c0.4-0.2,0.5,0.1,0.7,0.2c0.2,0.1,0.4,0.3,0.6,0.5     c0.2,0.2,0.4,0.3,0.6,0.5c0.2,0.1,0.4,0.3,0.6,0.4c0.4-0.2,0.3-0.5,0.3-0.7c-0.1-1.2-0.5-2.3-0.9-3.4c-0.9-2.4-2.3-4.5-3.8-6.5     c-4.6-6.2-9.8-11.9-15.5-17.1c-0.3-0.3-0.5-0.5-0.8-0.7c-0.7-0.5-1.1-1.2-1.2-2.2c-0.5-3.7-1.7-7.2-3-10.6c-1.5-3.7-3.2-7.2-5-10.8     c-0.2-0.5-0.6-0.9-0.6-1.7c0.9,1,1.5,1.9,2.1,2.8c1.2,1.8,2.3,3.6,3.3,5.4c2.2,4,4.5,7.9,7.2,11.5c2.4,3.2,4.1,6.9,6,10.4     c0.4,0.8,0.8,1.5,1.3,2.3c0.3,0.4,0.6,0.8,1,1c0.4-0.1,0.5-0.3,0.6-0.6c0.3-1.1,0.4-2.2,0.2-3.3c-0.3-1.5-0.8-3-1.3-4.5     c-0.5-1.3-1-2.7-1.6-4c-0.1-0.3-0.3-0.7-0.1-1.1c0.3-0.1,0.4,0.1,0.5,0.2c0.7,1,1.3,2.1,1.8,3.2c0.8,1.8,1.5,3.6,2.3,5.3     c0.7,1.6,1.5,3.2,2.6,4.6c0.2,0.3,0.4,0.6,0.8,0.7c0.4-0.2,0.4-0.5,0.4-0.8c0.1-1.8-0.2-3.6-0.8-5.4c-0.5-1.6-1.1-3.1-1.8-4.6     c-2.2-4.5-3.8-9.3-5.5-14c-0.1-0.3-0.2-0.5,0-0.8c0.5,0.1,0.7,0.5,0.9,0.8c1.4,1.7,2.5,3.6,3.5,5.6c1.1,2.2,2.2,4.4,3.2,6.7     c1.6,3.4,3.2,6.8,5.1,10c1.3,2.3,2.8,4.6,4.5,6.7c0.6,0.8,1.2,1.5,1.9,2.1c0.4-0.1,0.4-0.4,0.5-0.6c0.1-1-0.2-2-0.7-3     c-2.2-5-4.3-10.1-6.8-14.9c-0.8-1.5-1.5-3-2.2-4.5c-0.1-0.3-0.2-0.6-0.6-0.7c0.2,0,0.4-0.1,0.5,0.1c0.2,0.3,0.4,0.6,0.6,1     c3.1,5.9,6.8,11.6,10.4,17.1c1.5,2.2,3.2,4.3,5.2,6.1c0.6,0.5,1.2,1.1,1.9,1.3c0.3-0.2,0.3-0.4,0.3-0.6c-0.1-1-0.5-2-0.9-2.9     c-0.4-0.8-0.8-1.6-1.3-2.4c-1.6-2.6-2.8-5.4-3.8-8.3c-1.6-5-3.4-9.9-5.6-14.7c-1.7-3.6-3.4-7.2-5.1-10.7c-0.2-0.5-0.6-0.9-0.6-1.5     c0.5,0,0.6,0.3,0.8,0.5c0.9,1.1,1.6,2.3,2.2,3.5c3.4,7.1,7.6,13.7,12.1,20.1c1.4,2,2.7,4.1,3.9,6.2c0.7,1.3,1.4,2.5,2.3,3.7     c0.9,1.3,2,2.4,3.3,3.3c0.3,0.2,0.6,0.5,1,0.4c0.4-0.3,0.2-0.7,0.1-1c-0.7-2.4-1.4-4.7-2.3-7c-1.5-3.9-3.2-7.7-5.6-11.2     c-3-4.4-5.2-9.1-6.8-14.1c-0.4-1.1-0.8-2.2-1.2-3.3c-0.1-0.3-0.2-0.6-0.1-0.9c0.4,0,0.5,0.4,0.6,0.6c0.6,1.1,1.1,2.2,1.6,3.3     c1.4,3.2,2.8,6.4,4.4,9.5c1,2,3,5.1,4.4,6.8c2.6,3.3,4.9,6.8,7,10.5c0.8,1.4,1.7,2.8,2.6,4.2c0.6,0.9,1.3,1.7,2.1,2.4     c0.3,0.2,0.5,0.4,0.8,0.5c0.1,0.1,0.3,0,0.5,0.1c0.2-0.3,0.2-0.6,0.1-0.9c-0.2-1-0.6-2.1-1-3.1c-0.8-1.9-1.6-3.7-2.3-5.6     c-1.1-3-2.5-5.8-4.2-8.5c-0.5-0.8-1-1.7-1.6-2.5c-4.1-6-7.7-12.2-11.2-18.6c-0.5-0.9-1-1.8-1.5-2.6c0.4-0.2,0.4,0.1,0.5,0.2     c0.2,0.1,0.3,0.3,0.4,0.5c4,5,7.9,10.1,11.7,15.3c2.2,2.9,4.3,5.9,6.4,8.9c1.4,1.9,2.5,3.9,3.4,6c0.7,1.6,1.4,3.2,2.2,4.8     c0.6,1.4,1.4,2.7,2.2,3.9c1,1.4,2.1,2.6,3.5,3.5c0.2,0.1,0.4,0.2,0.6,0.3c0.1,0,0.2,0,0.3,0c0.2-0.2,0.2-0.4,0.1-0.6     c-2.5-6.1-5.3-12.1-8.1-18c-1-2.1-2.2-4.2-3.4-6.2c-1.6-2.7-3.1-5.5-4.7-8.3c-0.6-1.1-1.3-2.2-1.9-3.4c-0.2-0.4-0.6-0.8-0.6-1.3     c0.3-0.2,0.4,0,0.5,0.1c1.4,1.2,2.6,2.7,3.7,4.2c1.1,1.6,2,3.3,2.9,5c0.8,1.6,1.7,3.1,2.6,4.6c1.5,2.5,3.3,4.7,5.6,6.6     c2.2,1.8,4.3,3.7,6,6c0.6,0.9,1.4,1.6,2.4,2.2c0.2,0.1,0.4,0.3,0.7,0.2c0.2-0.2,0.1-0.5,0-0.7c-0.7-1.7-1.4-3.5-2.2-5.2     c-0.8-1.9-1.9-3.8-3.3-5.4c-0.9-1-1.8-2.1-2.7-3.1c-2.2-2.7-4-5.7-5.1-9.1c-0.1-0.5-0.2-0.9-0.3-1.4c0-0.1,0.1-0.2,0.1-0.3     c0.6,0.1,1,0.5,1.4,0.9c1.4,1.1,2.7,2.4,3.8,3.9c1,1.4,2,2.9,2.9,4.4c2.5,4.2,5.6,7.9,9.1,11.2c3.1,2.9,6.3,5.7,9.7,8.1     c1.7,1.2,3.2,2.5,4.4,4.2c0.1,0.1,0.3,0.1,0.4,0.2c0.4-0.2,0.4-0.5,0.4-0.8c0.1-1.5,0-2.9-0.5-4.3c-0.4-1.3-1.1-2.6-1.8-3.8     c-1.1-1.7-2.3-3.3-3.6-4.7c-1.7-1.9-3.4-3.7-5.1-5.6c-0.5-0.6-1-1.2-1.5-1.8c0.2-0.4,0.4-0.2,0.6-0.1c1.8,0.9,3.4,2,5,3.3     c1.1,0.9,2.2,1.7,3.4,2.5c0.7,0.5,1.6,0.9,2.5,1.2c0.3,0.1,0.5,0.1,0.8-0.2c0-0.6-0.4-1-0.7-1.5c-1.1-1.8-2.4-3.3-3.9-4.7     c-2.5-2.5-5.2-4.8-8-7c-1-0.8-2-1.6-3.1-2.3c-2.6-1.9-5.2-3.5-8.2-4.8c-0.8-0.3-1.5-0.7-2-1.4c0.1-0.4,0.3-0.4,0.5-0.4     c1.5-0.1,2.9,0.1,4.3,0.5c1.6,0.5,3.2,1,4.7,1.5c1.6,0.6,3.3,1,4.9,1.4c0.3,0.1,0.6,0.1,1,0c0.1-0.4-0.2-0.4-0.4-0.6     c-0.7-0.4-1.5-0.8-2.2-1.2c-2.4-1.3-4.7-2.8-6.8-4.6c-2-1.7-4.2-2.8-6.7-3.4c-1.1-0.2-2.2-0.4-3.3-0.5c-1.3-0.1-2.5-0.5-3.7-1.1     c-0.6-0.3-1.2-0.7-1.8-1c-2.3-1.5-4.9-2.1-7.6-2.4c-3.4-0.3-6.7-0.7-10.1-1c-0.3,0-0.5-0.1-0.8-0.1c0.3-0.5,0.8-0.5,1.2-0.5     c2.7-0.4,5.3-0.4,8-0.2c2.6,0.2,5.1,0.2,7.7,0.2c0.8,0,1.7-0.1,2.4-0.3c0.1-0.2,0.1-0.3,0-0.3c-1.3-0.2-2.6-0.5-3.9-1     c-3.3-1.3-6.8-2-10.3-2.6c-2.5-0.4-5-0.7-7.5-1.1c-0.9-0.1-1.7-0.4-2.4-1.1c-0.9-0.9-1.9-1.6-2.8-2.4c-2.1-1.7-4.1-3.5-5.8-5.5     c-2.6-2.9-5.4-5.5-8.4-7.9c-0.3-0.3-0.7-0.5-1-0.8c0.3-0.3,0.5-0.1,0.7,0.1c1.5,1,3,2.1,4.4,3.2c2.4,1.9,4.7,3.9,7.1,5.8     c1.2,1,2.5,2.1,3.8,3c1.1,0.7,2.2,1.4,3.4,1.8c0.3,0.1,0.7,0.3,1.1,0.1c0.3-0.3,0.2-0.6,0.2-0.9c-0.2-0.8-0.6-1.5-1-2.2     c-0.9-1.3-1.9-2.6-3.1-3.6c-1.6-1.4-2.9-3-4.2-4.6c-1.3-1.7-2.7-3.5-4.1-5.1c-1.1-1.3-2.3-2.4-3.6-3.5c-0.2-0.2-0.6-0.3-0.7-0.7     c0.9,0,1.7,0.3,2.4,0.7c1.3,0.6,2.6,1.3,3.7,2.3c6.4,5.1,13.3,9.6,20.1,14.2c1.4,1,2.8,1.9,4.3,2.9c1,0.7,2,1.2,3.1,1.6     c0.6,0.2,1.1,0.3,1.7,0.1c0.3-0.7,0-1.3-0.3-1.9c-0.5-1.1-1.1-2.1-1.9-3c-2-2.3-3.9-4.7-6.1-6.9c-2.3-2.4-4.8-4.6-7.3-6.8     c-0.4-0.3-0.9-0.5-1-1.1c0.5-0.1,0.8,0.3,1.1,0.5c1.8,1.1,3.5,2.3,5.2,3.5c2,1.5,4,3,6.1,4.5c3.3,2.4,6.7,4.4,10.5,5.8     c1.7,0.7,3.5,1.4,5.2,2.1c2.5,1,4.9,2.1,7.3,3.3c0.3,0.2,0.6,0.5,1,0.2c0.2-0.2,0.1-0.5,0-0.7c-0.7-1.3-1.6-2.4-2.6-3.5     c-1.5-1.6-3.1-3.1-4.9-4.4c-2-1.4-4-2.7-6-4.1c-2-1.4-3.9-2.8-6-4.1c-0.8-0.6-1.4-1.3-1.7-2.2c-0.1-0.4-0.4-0.7-0.4-1.2     c0.3-0.2,0.4,0,0.6,0.1c2.1,1.1,4.1,2.3,6.2,3.4c0.5,0.3,1,0.7,1.4,1c1.2,1,2.5,1.9,3.6,2.4c0.7,0.2,0.8-0.3,1.3-0.2     c5.7,2.7,11.6,5.3,17,8.8c0.3,0.2,0.6,0.4,1,0.5c0.1,0,0.3,0,0.4-0.1c0.1-0.1,0.1-0.3,0-0.4c-0.2-0.3-0.4-0.5-0.6-0.7     c-3.2-3.1-6.3-6.2-9.7-9c-0.5-0.4-0.9-0.9-1.3-1.4c-0.7-1.2-1.7-2.2-2.7-3.1c-0.8-0.7-1.5-1.5-2.3-2.2c0.4-0.3,0.6,0,0.8,0.1     c1.8,1,3.5,2,5.3,3.1c1.9,1.2,3.9,2.3,5.9,3.2c2.6,1.2,5.4,2.2,8.2,2.8c1.3,0.3,2.5,0.5,3.6,1.2c0.3-0.3,0.1-0.5,0-0.7     c-0.5-0.8-1.2-1.4-1.9-1.9c-1.4-0.9-2.8-1.8-4.1-2.8c-0.4-0.3-0.9-0.5-1.3-0.9c-2.2-1.9-4.6-3.4-7-4.8c-1.4-0.9-2.8-1.8-4.2-2.6     c-0.3-0.2-0.6-0.4-0.9-0.7c-0.1-0.1,0-0.3,0.1-0.4c0,0,0,0,0,0c0,0,0,0,0,0c0.3,0.3,0.6,0.4,1,0.5c3.5,1.2,7.1,1.9,10.8,2.3     c2.1,0.2,4.2,0.3,6.3,0.3c1.7,0,3.4,0.2,5.1,0.6c0.9,0.2,1.8,0.5,2.6,0.9c0.4,0.2,0.7,0.3,1,0C545.3,209.5,545.1,209,544.7,208.6z     M419.9,137.8c0,0.4-0.3,0.3-0.6,0.3C419.5,137.9,419.7,137.8,419.9,137.8z M419.3,138.2c-0.2,0.5-0.5,0.1-0.8,0.2c0,0,0,0,0,0     C418.7,138.3,419,138.2,419.3,138.2z M393.2,110.2c-0.6,0.4-0.6,0.4-1.2,0.4C392.4,110.4,392.7,110,393.2,110.2z M240.4,204.2     c-0.5,0.5-1,0.7-1.7,0.9c-3.5,0.7-7,1.5-10.4,2.5c-0.2,0.1-0.5,0.2-0.7-0.2c0.4-0.4,0.9-0.8,1.3-1.1c2.3-1.8,4.6-3.5,7.1-5     c4.5-2.8,9.1-5.6,13.7-8.3c1.9-1.1,3.9-2.2,5.9-3.2c2.9-1.5,5.9-2.8,9-3.9c0.6-0.2,1.1-0.6,1.8-0.4c-0.2,0.6-0.9,0.7-1.3,1     c-6.3,3.7-12.4,7.6-18.3,11.9C244.5,200.1,242.3,201.9,240.4,204.2z M256.5,202c0.7-0.5,1.4-0.8,2.4-0.8     C258.2,202.3,257.3,202.1,256.5,202z M267.5,190c-0.1,0.2-0.3,0.3-0.4,0.5c-1.6,1-3.2,2-4.9,2.8c-1.8,0.9-3.6,1.9-5.4,2.8     c-0.3,0.1-0.5,0.4-0.9,0.3c-0.3,0.5-0.8,0.7-1.2,1c-1.7,1.2-3.4,2.5-4.9,4c-0.6,0.6-1,1.5-1.8,1.8c-0.8,0.3-1.7,0.4-2.5,0.5     c-0.2,0-0.3,0-0.5,0c0-0.4,0.4-0.5,0.6-0.7c3.2-2.1,6.3-4.2,9.5-6.3c0.2-0.1,0.4-0.3,0.7-0.3c0.1-0.2,0.2-0.3,0.4-0.4     c3.4-2.1,6.8-4.1,10.4-5.8C266.9,190,267.2,190,267.5,190c0-0.4,0.3-0.4,0.5-0.4C268,190,267.8,190,267.5,190z M272.8,201     c-0.4,0.3-0.7,0.6-1,0.8c-1,0-2,0-2.9,0c-0.2,0-0.4,0-0.4-0.3c0.1-0.1,0.1-0.2,0.2-0.2c2.8-1.8,5.5-3.6,8.5-5.2     c2.7-1.5,5.6-2.8,8.6-3.6c1.3-0.3,2.6-0.7,4-0.3c-0.2,0.1-0.5,0.2-0.7,0.3c-3.7,1.4-7.2,3.1-10.6,4.9     C276.3,198.4,274.4,199.5,272.8,201z M296.6,194.6c-4.4,2.6-8.8,5.3-13,8.2c-0.6,0.4-1.2,0.4-1.8,0.3c-1.4-0.3-2.7-0.5-4.1-0.7     c-0.2,0-0.4-0.1-0.5-0.3c0.2-0.4,0.6-0.4,0.9-0.5c2.5-1.1,5-2.2,7.5-3.2c3.1-1.3,6.2-2.6,9.4-3.7c0.6-0.2,1.3-0.3,1.9-0.7     c0,0.1,0.1,0.3,0.1,0.4C296.8,194.4,296.7,194.6,296.6,194.6z M298,207.7c0.8-0.4,1.6-0.6,2.6-0.7     C299.2,208.5,299.1,208.5,298,207.7z M278.9,289.3c0,0.3-0.1,0.5-0.3,0.7c-0.5,0.5-1,1.1-1.7,1.5c-0.2-1.4,0-3.1,0.7-5.9     c0.3-1.3,0.6-2.6,1.4-3.7C279.1,284.4,279,286.9,278.9,289.3z M288.1,272.7c0.1-0.2,0.2-0.3,0.4-0.3c-0.2,1.9,0,3.7,0.2,5.6     c-0.9,0.6-1.7,1.1-2.9,1.9C286.5,277.1,287.3,274.9,288.1,272.7z M292.7,286.9c-3.7,2.2-7.2,4.8-10.6,7.6c-0.1,0.1-0.3,0.3-0.6,0     c0.2-0.6,0.5-1.3,0.7-2c0.1-0.4,0.4-0.7,0.8-1c2.5-1.6,5.1-3.2,7.9-4.3c0.6-0.3,1.3-0.6,2.2-0.7     C292.8,286.7,292.7,286.8,292.7,286.9z M295.2,278.8c-1.2,0.6-2.5,1.3-3.7,1.9c-1.2,0.7-2.3,1.4-3.4,2.1c-1.2,0.7-2.2,1.6-3.6,2.3     c0.3-1.6,0.6-3.1,1.2-4.4c1.1-0.5,2.2-1,3.2-1.4c0.6,0.3,0.5,1,1,1.2c0.1,0,0.2-0.1,0.2-0.1c0.4-0.4,0.4-0.9,0.5-1.3     c0.2-0.6,0.5-0.9,1-1.1c1-0.4,2-0.8,3-1.2c0.2-0.1,0.5-0.3,0.8,0C295.4,277.4,295.4,278.1,295.2,278.8z M295.4,274.3     c-1.1,0.6-2.2,1.2-3.6,2c0.3-1.3,0.9-2.2,1.3-3.1c0.5-1.1,1.5-1.4,2.6-1.6C295.8,272.5,295.7,273.4,295.4,274.3z M303.8,275.4     c-1.3,0.7-3.9,1.6-5.2,1.9c0.7-2.1,0.9-2.3,2.8-2.9c0.5-0.1,0.9-0.3,1.4-0.4c0.3-0.1,0.6-0.2,1,0.1c0,0.1,0.1,0.3,0.1,0.5     C303.8,274.9,303.8,275.2,303.8,275.4z M304,269.6c0,0.2-0.2,0.4-0.3,0.5c-0.6,0.3-1.2,0.8-2.2,0.9c0.3-0.6,0.5-1.1,0.7-1.6     c0.3-0.7,0.8-1.1,1.8-1C304,268.9,304,269.3,304,269.6z M343.6,233.8c0,0.3,0,0.6,0,1C343.4,234.4,343.5,234.1,343.6,233.8     C343.6,233.8,343.6,233.8,343.6,233.8z M343.1,233.4c0.1,0.2,0.3,0.3,0.4,0.4c-0.6,0.2-0.7-0.4-1-0.6     C342.8,233.2,343,233.1,343.1,233.4z M342.6,233.2c0-0.3-0.2-0.5-0.1-0.8C342.8,232.6,342.8,232.9,342.6,233.2z M342.4,232.3     c-0.6-0.3-0.9-0.8-0.9-1.5C342,231.2,342.3,231.7,342.4,232.3z M341.4,230.8c-0.4-0.1-0.4-0.6-0.8-0.8     C341.2,230,341.3,230,341.4,230.8z M327.2,202.8c1.3,1.1,2.4,2.3,3.5,3.6c0.1,0.1,0.3,0.3,0.2,0.5c-0.2,0.1-0.3,0-0.5,0     c-1.3-0.6-2.4-1.4-3.5-2.2c-1.1-0.8-2.2-1.6-3.3-2.3c-1-0.7-2-1.2-3.3-1.5c-0.5-0.9-1-1.8-1.5-2.6c-0.8-1.2-1.7-2.3-2.6-3.5     c0,0-0.1-0.1,0-0.1c0,0,0.1-0.1,0.2-0.1c1.4,0.8,2.7,1.6,4.1,2.4c1.3,0.7,2.4,1.6,3.4,2.7C324.9,200.7,326,201.8,327.2,202.8z     M301.7,181.1c0.9,0.1,1,0.2,1.1,1.6C302.2,182.2,301.9,181.7,301.7,181.1z M305.9,180.2c-0.3,0-0.5-0.3-0.8-0.6     c-0.7-0.8-1.5-1.6-2.2-2.4c-0.1-0.1-0.3-0.3-0.1-0.6c1.4,0.2,2.9,0.7,4.2,1.4c1.5,0.8,3.1,1.4,4.5,2.7c-0.4,0.1-0.5,0.2-0.6,0.2     C309.2,181,307.6,180.4,305.9,180.2z M312.7,189.9c-0.5,0-0.8-0.3-1-0.6c-1.2-1.9-2.4-3.7-3.7-5.7c0.3-0.2,0.6-0.1,0.8,0     c0.9,0.3,1.8,0.5,2.8,0.8c1.7,0.4,3.3,1.1,4.9,1.9c3.2,1.7,6,3.9,8.5,6.5c0.1,0.1,0.1,0.3,0.2,0.4c-0.3,0.2-0.6,0.1-0.8,0     c-0.8-0.4-1.7-0.6-2.6-0.7c-1.8-0.3-3.5-0.8-5.2-1.4C315.3,190.5,314.1,190,312.7,189.9z M305.6,274.8c-0.2,0.1-0.3,0-0.4-0.2     c0.1-0.5,0.2-0.9,0.6-1.3c1.1-0.2,2.2-0.5,3.8-0.4C308.1,273.8,306.9,274.3,305.6,274.8z M308.1,267.7c0.4-0.9,1.2-0.8,2.2-0.9     C308.9,267.7,308.9,267.7,308.1,267.7z M310.7,262c-0.1,0-0.2,0-0.3,0c-0.2-0.3,0-0.5,0.1-0.7c0-0.1,0.1-0.1,0.3-0.3     c0.1,0.2,0.1,0.2,0.1,0.3C310.9,261.6,311,261.8,310.7,262z M317.9,242.7c-2.4,0.2-4.7,0.4-7,0.5c0-0.4,0.3-0.6,0.5-0.7     c1.3-1,2.4-2.2,3.5-3.3c1-1.1,2-2.3,3-3.3c0.9-0.9,1.8-1.8,2.8-2.7c0.6-0.5,1.2-1,2.4-1.3c-1,2-1.9,3.7-2.8,5.3     C319.2,239,318.6,240.9,317.9,242.7z M325.9,242.7c-1.8,0-3.5,0-5.2,0c-0.1,0-0.3-0.1-0.7-0.2c1.7-1.3,3.2-2.5,4.9-3.6     c0.9-0.6,1.9-1.1,2.9-1.4c0.2-0.1,0.5-0.2,0.7,0.2C327.4,239.3,326.7,241,325.9,242.7z M327.9,211.7c-0.2-0.3-0.5-0.6-0.7-0.9     c-1.5-2-2.9-4.1-4.4-6.1c-0.1-0.2-0.4-0.4-0.2-0.9c1.2,0.8,2.1,1.6,3,2.6c2.1,2.3,4.7,3.8,7.6,4.9c0.8,0.3,1.5,0.6,2.2,0.9     c0.9,0.4,1.7,0.9,2.2,1.7c0.1,0.2,0.2,0.4,0,0.7c-0.7,0.2-1.4-0.2-2.1-0.5c-0.9-0.4-1.8-0.7-2.8-0.8c-1-0.1-1.9-0.3-2.9-0.3     C329.1,212.8,328.5,212.4,327.9,211.7z M347.7,246.4c-1.4-0.4-2.9-0.7-4.3-1.1c-3.8-0.9-7.7-1.6-11.7-2.1c0,0-0.1,0-0.1-0.1     c0,0,0-0.1,0-0.3c1.1-0.6,2.3-0.9,3.5-1.3c1.9-0.5,3.8-0.6,5.7-0.2c2.1,0.5,4,1.3,5.5,2.7c0.7,0.6,1.3,1.3,1.6,2.1     C347.8,246.4,347.7,246.4,347.7,246.4z M350.3,242.6c-0.1-0.4-0.5-0.7-0.3-1.4C350.3,241.8,350.5,242.1,350.3,242.6z M353.3,244.8     c0.4-1.1,0.6-2.1,1.1-3c1.1,0.3,2.2,0.3,3.2,0.2c0.2,0,0.5-0.1,0.6,0.3C355.9,243.9,354.5,244.6,353.3,244.8z M364.2,239.3     c-0.6,0.3-1.1,0.6-1.8,0.7c-0.1-0.3-0.2-0.6-0.3-0.9c-0.1-0.4-0.2-0.7,0-1.2c1.2-0.1,2.4,0.3,3.9,0.3     C365.3,238.9,364.7,239.1,364.2,239.3z M365.1,185.3c0-0.1,0-0.1,0-0.2c0,0,0-0.1,0.1-0.1c2.2-1.6,4.2-3.3,6.2-5.1     c0,0,0.1-0.1,0.1-0.1c0,0,0.1,0,0.1,0.1c-0.4,1-1.8,3.4-3.1,5.1C367.3,185.1,366.2,185.2,365.1,185.3z M369.5,236.6     c-0.4-0.6-1.1-1-1.5-1.8c2.3-0.6,4.5-0.8,7-0.7C373.5,235,370.7,236.3,369.5,236.6z M418.6,364.3c0,0.3,0.1,0.5-0.2,0.7     C418.3,364.7,418.4,364.5,418.6,364.3z M401.4,206.7c-1.4-0.4-2.4-0.7-3.4-0.9c-0.5-0.2-0.5-0.2-1.4-1.1     C398.5,204.3,399.9,205.3,401.4,206.7z M389.1,228.2c-2.1,0.9-4.2,1.8-6.4,2.7c-0.5,0.2-1,0.4-1.5,0.2c-1.7-0.6-3.3-1.1-4.9-1.9     c0,0,0-0.1-0.1-0.2c0.2-0.3,0.6-0.3,1-0.4c1.5-0.5,3-0.9,4.4-1.5c0.7-0.3,1.4-0.3,2.2-0.2c1,0.2,2,0.4,3,0.5c0.2,0,0.5,0.1,0.8-0.2     c-0.2-0.7-0.7-1.1-1.1-1.6c-0.4-0.5-0.8-1-1.3-1.4c-0.5-0.5-1-1-1.5-1.5c-0.5-0.5-1-0.8-1.4-1.4c0.2,0,0.2-0.1,0.2-0.1     c0.5,0.2,1,0.4,1.4,0.7c3,1.5,6.2,2.6,9.5,3.3c0.6,0.1,1.2,0.3,1.9,0.1c0-0.6-0.4-0.8-0.6-1.1c-1.4-1.6-3.1-2.9-4.9-4.1     c-0.3-0.2-0.7-0.3-0.7-0.7c0.9-0.5,1.8-0.5,2.7,0.1c0.2,0.1,0.5,0.2,0.7,0.3c2.5,1,5,1.9,7.7,2.2c0.3,0,0.7,0.2,1.1-0.1     c-0.2-0.7-0.6-1.3-1.1-1.9c-0.9-1-1.9-1.9-3-2.7c-0.3-0.2-0.8-0.4-0.8-0.7c-0.4-1.5-1.7-1.9-2.8-2.6c-0.4-0.3-0.8-0.4-1.4-0.7     c1.1-0.7,2.3-0.7,3.5-1.1c2.1,1.4,4.1,2.8,6.2,4.2c2.1,1.4,4.3,2.6,6.6,3.6c-0.4,0.6-1,0.6-1.5,0.8     C401.1,223.3,395.1,225.8,389.1,228.2z M413.7,234.5c-8.1,1.4-16.1,2.8-24.2,4.2l16.8-6.2c2.8-0.1,5.5,0.6,8.1,1.7     C414.2,234.4,413.9,234.4,413.7,234.5z M413.7,218.1c-0.9,0.4-1.8,0.8-2.9,1.1c-2.1-2.8-4.3-5.6-6.8-8.1c0,0,0-0.1-0.1-0.1     c0-0.1,0-0.1,0-0.2c0.6-0.3,1.2-0.6,1.8-0.9c3.4,2.5,6.9,4.8,10.5,6.9C415.5,217.5,414.6,217.7,413.7,218.1z M429.4,191.1     c0.3,0.3,0.7,0.5,1,0.8c1.5,1.4,3,2.7,4.5,4.2c3,2.9,5.9,5.8,9.1,8.4c0.2,0.1,0.3,0.3,0.5,0.6c-1.5,0.6-2.9,1.1-4.4,1.7     c-0.2-0.3-0.4-0.5-0.6-0.7c-1.5-2-3-4.1-4.5-6.1c-2-2.6-3.8-5.3-5.5-8.1C429.4,191.6,429.1,191.4,429.4,191.1z M424,232.9     c-1.7,0.2-3.4,0.5-5.1,0.7c-0.3-0.9-0.5-1.5-0.7-2.2c-0.3-0.6-0.6-1.2-0.9-1.8c0.3-0.2,0.5-0.1,0.7-0.1c2.1,0.8,4.1,1.9,6,3     C424,232.7,424,232.8,424,232.9z M421.7,214.7c-0.7-0.6-1.3-1.3-1.9-2c-0.7-0.8-1.3-1.7-1.7-2.7c-0.1-0.2-0.1-0.5,0.1-0.8     c0.1,0,0.3-0.1,0.4-0.1c0.5,0.1,1,0.4,1.5,0.6c1.3,0.7,3.7,2.6,4.7,3.5C423.8,213.9,422.8,214.3,421.7,214.7z M428.2,290.7     c-0.1-0.3-0.3-0.7,0-1C428.3,290.1,428.4,290.4,428.2,290.7z M424.9,201.1c-1.5-1.7-2.9-3.4-4.2-5.2c-0.3-0.5-0.6-1-1-1.6     c1.3-0.2,2.2,0.2,3,1c1.1,1.2,2.3,2.3,3.3,3.5c2.7,3.1,5.6,6.2,8.5,9.2c0.2,0.2,0.5,0.4,0.5,0.8c-0.4,0.3-0.8,0.5-1.2,0.6     c-0.5,0.2-0.9,0.5-1.5,0.5c-0.1-0.1-0.2-0.1-0.3-0.2C429.8,206.6,427.4,203.9,424.9,201.1z M430.1,232.2c-0.1-0.3-0.2-0.6-0.2-0.9     c-0.1-0.3-0.4-0.6-0.1-0.9c1.7,0.1,4.3,1,5.3,1.7C433.5,232.4,431.2,232.5,430.1,232.2z M435.4,262.2c-0.5-0.2-1-0.5-1.4-0.9     c-0.2-0.3-0.4-0.6-0.5-1c-0.3-0.6-0.7-1.2-0.8-2.1c1.1,1.4,2,2.6,2.9,3.7c0,0,0.1,0.1,0.1,0.1C435.5,262.1,435.5,262.2,435.4,262.2z     M442.1,261.5c1.4,2.6,2.8,5.3,4.1,8c0.1,0.1,0.1,0.3,0,0.5c-0.7-0.4-1.2-0.9-1.8-1.4c-0.6-0.5-1.3-1-1.9-1.5     c-0.6-0.5-1.3-1-1.9-1.5c0.4-0.8,0.3-1.5,0.2-2.2c-0.1-1.6-0.6-3-1.3-4.4c-0.4-0.8-0.9-1.6-1.3-2.4c-0.1-0.2-0.4-0.4,0-0.7     c0.4,0.4,0.7,0.8,1.1,1.2C440.3,258.4,441.2,259.9,442.1,261.5z M441.2,232.4c-0.7-1.4-1.3-2.9-2.2-4.1c-0.9-1.3-1.9-2.5-2.9-3.6     c-1-1.1-2.1-2.3-3.1-3.4c0-0.1,0.1-0.1,0.1-0.2c0.4,0.1,0.8,0.2,1.2,0.4c3.8,1.3,7.5,2.8,10.9,4.9c1.5,0.9,3,1.8,4.5,2.7     c1.7,1,3.5,2,5.4,2.7c0.2,0.1,0.4,0.1,0.4,0.5C450.9,232.4,446.1,232.3,441.2,232.4z M467.7,262.2c0.1,0.2,0.1,0.4,0.2,0.7     C467.6,262.7,467.6,262.4,467.7,262.2z M468.1,263.6c-0.2-0.2-0.2-0.4-0.2-0.6C468.1,263.1,468.2,263.3,468.1,263.6z M468.2,263.7     c0.5,0.2,0.2,0.5,0.1,0.8C468.4,264.2,468.2,263.9,468.2,263.7z M468.6,265.1c0-0.3,0-0.5-0.3-0.6     C468.7,264.6,468.8,264.8,468.6,265.1z M467.6,227.2c2.3,1.9,4.7,3.7,7.3,5.2c0.2,0.1,0.4,0.2,0.2,0.5c-2.2-0.1-4.5-0.3-6.7-0.4     c-2.2-0.1-4.5-0.1-6.7-0.2c-1.1-2-2.8-3.3-4.7-4.4c-1.6-1-3.3-2.1-4.9-3.1c-1.2-0.8-2.4-1.6-3.5-2.5c-0.8-0.7-1.6-1.5-2.1-2.4     c-0.1-0.2-0.3-0.5-0.1-0.7c1.8,0.4,2.6,0.9,10.7,5.7c3.5,2.1,6.9,4.4,10.2,6.9c0.6-0.3,0.6-0.6,0.5-1c-0.1-0.4-0.3-0.8-0.6-1.1     c-0.4-0.5-0.9-0.9-1.3-1.4c-3.2-3-6.6-5.6-10.1-8.2c-2.8-2.1-5.6-4.2-8.3-6.3c-0.3-0.2-0.7-0.4-0.8-1c0.9,0.2,1.6,0.6,2.3,0.9     c2.8,1.4,5.4,3.1,7.8,5C460.4,221.5,464,224.3,467.6,227.2z M456.2,199.3c0.7,0.4,1.3,0.8,1.9,1.4c-0.2,0.4-0.4,0.5-0.7,0.4     C456.9,200.8,456.4,200.1,456.2,199.3z M465.8,197.5c-0.3,0.2-0.7,0.4-1.1,0.5c-0.4,0.2-0.8,0.5-1.3,0.5c-0.1,0-0.2-0.1-0.2-0.1     c-4-5.1-8.2-10.1-12.6-15c0,0-0.1-0.1-0.1-0.1c0,0-0.1-0.1-0.1-0.1c0,0,0-0.1,0-0.2c0.1,0,0.2,0,0.3,0c5.2,4.5,9.9,9.5,15,14     c0,0,0.1,0.1,0.1,0.1C465.8,197.3,465.8,197.4,465.8,197.5z M474.6,193.7c-0.9,0.3-1.9,0.9-2.9,1c-1.6-2.1-3.4-5.1-3.9-6.7     c1.9,1.4,3.6,2.5,5.2,3.7c0.4,0.3,0.8,0.7,1.2,1.1C474.4,193.1,474.7,193.3,474.6,193.7z M506.1,207.7c-0.4-0.2-0.7-0.7-0.9-1.1     c0-0.1,0-0.3,0.1-0.4c2,0.8,3.8,2.2,4.4,3.5C508.4,209,507.3,208.3,506.1,207.7z" />

        </svg>
    
        </g>
    </svg>