<?xml version='1.0' encoding='utf-8'?>
<svg xmlns="http://www.w3.org/2000/svg" width="896.0px" height="256px" viewBox="0 0 896.0 256">
        <style>
            * {
                font-family: "Trebuchet MS", sans-serif;
            }
            .overview-background {
                opacity: 0%;
                animation: fade-in-overview-background 0.75s forwards ease-in-out;
                animation-delay: 0s;
            }
            @keyframes fade-in-overview-background {
                0% {
                    opacity: 0%;
                }
                100% {
                    opacity: 100%;
                }
            }
    
        @keyframes fade-in-slide-up-card0 {
            0% {
                transform: translate(2.5%, 29.5%);
                opacity: 0%;
            }
            67% {
                transform: translate(2.5%, 24.5%);
            }
            100% {
                transform: translate(2.5%, 24.5%);
                opacity: 100%;
            }
        }
        .card0 {
            opacity: 0%;
            animation: fade-in-slide-up-card0 1.375s forwards ease-out;
        }
    
        @keyframes fade-in-slide-up-card1 {
            0% {
                transform: translate(21.5%, 29.5%);
                opacity: 0%;
            }
            67% {
                transform: translate(21.5%, 24.5%);
            }
            100% {
                transform: translate(21.5%, 24.5%);
                opacity: 100%;
            }
        }
        .card1 {
            opacity: 0%;
            animation: fade-in-slide-up-card1 1.375s forwards ease-out;
        }
    
        @keyframes fade-in-slide-up-card2 {
            0% {
                transform: translate(40.5%, 29.5%);
                opacity: 0%;
            }
            67% {
                transform: translate(40.5%, 24.5%);
            }
            100% {
                transform: translate(40.5%, 24.5%);
                opacity: 100%;
            }
        }
        .card2 {
            opacity: 0%;
            animation: fade-in-slide-up-card2 1.375s forwards ease-out;
        }
    
        @keyframes fade-in-slide-up-card3 {
            0% {
                transform: translate(59.5%, 29.5%);
                opacity: 0%;
            }
            67% {
                transform: translate(59.5%, 24.5%);
            }
            100% {
                transform: translate(59.5%, 24.5%);
                opacity: 100%;
            }
        }
        .card3 {
            opacity: 0%;
            animation: fade-in-slide-up-card3 1.375s forwards ease-out;
        }
    
        @keyframes fade-in-slide-up-card4 {
            0% {
                transform: translate(78.5%, 29.5%);
                opacity: 0%;
            }
            67% {
                transform: translate(78.5%, 24.5%);
            }
            100% {
                transform: translate(78.5%, 24.5%);
                opacity: 100%;
            }
        }
        .card4 {
            opacity: 0%;
            animation: fade-in-slide-up-card4 1.375s forwards ease-out;
        }
    </style>
        <svg width="896.0px" height="256px">
            <defs>
                <linearGradient id="overviewGradient" gradientTransform="rotate(90)">
                    <stop offset="0%" stop-color="#92a7da" />
                    <stop offset="100%" stop-color="#c1b9e8" />
                </linearGradient>
            </defs>
            <rect class="overview-background" width="896.0px" height="256px" rx="15px" fill="url('#overviewGradient')" mask="url('#overviewContents')" />
            <mask id="overviewContents">
                <rect width="896.0px" height="256px" rx="15px" fill="white" />
    
        <g class="card0" width="170.23999999999998px" height="256px" style="animation-delay: 1.5s">
    
        <svg viewBox="0 0 24 24" width="76.8px" height="76.8px" x="46.71999999999999px" fill="black">
            <path d="M17.28 9.28a.75.75 0 00-1.06-1.06l-5.97 5.97-2.47-2.47a.75.75 0 00-1.06 1.06l3 3a.75.75 0 001.06      0l6.5-6.5z">
    </path>
    <path fill-rule="evenodd" d="M12 1C5.925 1 1 5.925 1 12s4.925 11 11 11 11-4.925 11-11S18.075      1 12 1zM2.5 12a9.5 9.5 0 1119 0 9.5 9.5 0 01-19 0z">
    </path>
        </svg>
        <text y="107.52px" x="85.11999999999999px" font-size="30.72px" text-anchor="middle" fill="black">
            107
        </text>
        <text y="130.56px" x="85.11999999999999px" font-size="15.36px" text-anchor="middle" fill="black">
            Issues
        </text>
    </g>
        <g class="card1" width="170.23999999999998px" height="256px" style="animation-delay: 1.0s">
    
        <svg viewBox="0 0 24 24" width="76.8px" height="76.8px" x="46.71999999999999px" fill="black">
            <path fill-rule="evenodd" d="M4.75 3a1.75 1.75 0 100 3.5 1.75 1.75 0 000-3.5zM1.5 4.75a3.25 3.25 0 116.5      0 3.25 3.25 0 01-6.5 0zM4.75 17.5a1.75 1.75 0 100 3.5 1.75 1.75 0 000-3.5zM1.5 19.25a3.25 3.25 0 116.5 0      3.25 3.25 0 01-6.5 0zm17.75-1.75a1.75 1.75 0 100 3.5 1.75 1.75 0 000-3.5zM16 19.25a3.25 3.25 0 116.5 0 3.25      3.25 0 01-6.5 0z">
    </path>
    <path fill-rule="evenodd" d="M4.75 7.25A.75.75 0 015.5 8v8A.75.75 0 014 16V8a.75.75      0 01.75-.75zm8.655-5.53a.75.75 0 010 1.06L12.185 4h4.065A3.75 3.75 0 0120 7.75v8.75a.75.75 0 01-1.5 0V7.75a2.25      2.25 0 00-2.25-2.25h-4.064l1.22 1.22a.75.75 0 01-1.061 1.06l-2.5-2.5a.75.75 0 010-1.06l2.5-2.5a.75.75 0 011.06 0z">
    </path>
        </svg>
        <text y="107.52px" x="85.11999999999999px" font-size="30.72px" text-anchor="middle" fill="black">
            83
        </text>
        <text y="130.56px" x="85.11999999999999px" font-size="15.36px" text-anchor="middle" fill="black">
            Pull Requests
        </text>
    </g>
        <g class="card2" width="170.23999999999998px" height="256px" style="animation-delay: 0.5s">
    
        <svg viewBox="0 0 24 24" width="76.8px" height="76.8px" x="46.71999999999999px" fill="black">
            <path fill-rule="evenodd" d="M12 2.5c-3.81 0-6.5 2.743-6.5 6.119 0 1.536.632 2.572 1.425      3.56.172.215.347.422.527.635l.096.112c.21.25.427.508.63.774.404.531.783 1.128.995 1.834a.75.75      0 01-1.436.432c-.138-.46-.397-.89-.753-1.357a18.354 18.354 0 00-.582-.714l-.092-.11c-.18-.212-.37-.436-.555-.667C4.87      12.016 4 10.651 4 8.618 4 4.363 7.415 1 12 1s8 3.362 8 7.619c0 2.032-.87      3.397-1.755 4.5-.185.23-.375.454-.555.667l-.092.109c-.21.248-.405.481-.582.714-.356.467-.615.898-.753 1.357a.75.75      0 01-1.437-.432c.213-.706.592-1.303.997-1.834.202-.266.419-.524.63-.774l.095-.112c.18-.213.355-.42.527-.634.793-.99      1.425-2.025 1.425-3.561C18.5 5.243 15.81 2.5 12 2.5zM9.5 21.75a.75.75 0 01.75-.75h3.5a.75.75 0 010 1.5h-3.5a.75.75 0      01-.75-.75zM8.75 18a.75.75 0 000 1.5h6.5a.75.75 0 000-1.5h-6.5z">
    </path>
        </svg>
        <text y="107.52px" x="85.11999999999999px" font-size="30.72px" text-anchor="middle" fill="black">
            9.7K
        </text>
        <text y="130.56px" x="85.11999999999999px" font-size="15.36px" text-anchor="middle" fill="black">
            Contributions
        </text>
    </g>
        <g class="card3" width="170.23999999999998px" height="256px" style="animation-delay: 1.0s">
    
        <svg viewBox="0 0 24 24" width="76.8px" height="76.8px" x="46.71999999999999px" fill="black">
            <path fill-rule="evenodd" d="M3 2.75A2.75 2.75 0 015.75 0h14.5a.75.75 0 01.75.75v20.5a.75.75      0 01-.75.75h-6a.75.75 0 010-1.5h5.25v-4H6A1.5 1.5 0 004.5 18v.75c0 .716.43 1.334 1.05 1.605a.75.75      0 01-.6 1.374A3.25 3.25 0 013 18.75v-16zM19.5 1.5V15H6c-.546 0-1.059.146-1.5.401V2.75c0-.69.56-1.25      1.25-1.25H19.5z">
    </path>
    <path d="M7 18.25a.25.25 0 01.25-.25h5a.25.25 0 01.25.25v5.01a.25.25 0 01-.397.201l-2.206-1.604a.25.25      0 00-.294 0L7.397 23.46a.25.25 0 01-.397-.2v-5.01z">
    </path>
        </svg>
        <text y="107.52px" x="85.11999999999999px" font-size="30.72px" text-anchor="middle" fill="black">
            81
        </text>
        <text y="130.56px" x="85.11999999999999px" font-size="15.36px" text-anchor="middle" fill="black">
            Repositories
        </text>
    </g>
        <g class="card4" width="170.23999999999998px" height="256px" style="animation-delay: 1.5s">
    
        <svg viewBox="0 0 24 24" width="76.8px" height="76.8px" x="46.71999999999999px" fill="black">
            <path fill-rule="evenodd" d="M12 .25a.75.75 0 01.673.418l3.058 6.197 6.839.994a.75.75 0 01.415 1.279l-4.948 4.823      1.168 6.811a.75.75 0 01-1.088.791L12 18.347l-6.117 3.216a.75.75 0 01-1.088-.79l1.168-6.812-4.948-4.823a.75.75 0      01.416-1.28l6.838-.993L11.328.668A.75.75 0 0112 .25zm0 2.445L9.44 7.882a.75.75 0 01-.565.41l-5.725.832 4.143 4.038a.75.75      0 01.215.664l-.978 5.702 5.121-2.692a.75.75 0 01.698 0l5.12 2.692-.977-5.702a.75.75 0 01.215-.664l4.143-4.038-5.725-.831a.75.75      0 01-.565-.41L12 2.694z">
    </path>
        </svg>
        <text y="107.52px" x="85.11999999999999px" font-size="30.72px" text-anchor="middle" fill="black">
            941
        </text>
        <text y="130.56px" x="85.11999999999999px" font-size="15.36px" text-anchor="middle" fill="black">
            Stars
        </text>
    </g></mask></svg></svg>